<svg width="754" height="465" viewBox="0 0 754 465" fill="none" xmlns="http://www.w3.org/2000/svg">
<path fill-rule="evenodd" clip-rule="evenodd" d="M229.287 452.122L188.397 452.323L94.2187 452.769L0.0703125 453.72L94.2187 454.226L188.397 454.285L233.917 454.307C268.792 459.255 400.666 475.49 498.033 453.781L565.049 453.453L659.227 453.007L753.375 452.055L659.227 451.549L565.049 451.49L497.417 451.458C455.036 449.891 274.711 443.928 229.287 452.122Z" fill="#ADD0EE"/>
<path d="M403.535 408.885C403.535 408.885 393.666 423.813 394.171 435.202L427.823 448.108C427.823 448.108 416.705 439.752 416.437 435.945C416.17 432.139 418.221 410.431 418.221 410.431L403.535 408.885Z" fill="#E09786"/>
<path d="M441.59 409.063C441.59 409.063 448.606 440.139 451.133 441.655L477.947 443.172C477.947 443.172 468.434 445.967 459.783 404.186C451.103 362.436 441.59 409.063 441.59 409.063Z" fill="#E09786"/>
<path d="M393.042 434.429C393.042 434.429 390.574 436.718 391.347 448.673C391.347 448.673 436.831 453.044 441.587 453.044C446.344 453.044 438.971 445.699 430.053 446.71C430.053 446.71 394.171 435.618 394.201 433.804" fill="#262524"/>
<path d="M450.537 441.06C449.378 441.001 452.113 453.015 452.113 453.015L501.759 452.063C501.759 452.093 502.71 443.915 450.537 441.06Z" fill="#262524"/>
<path d="M638.567 194.51L631.76 206.197" stroke="black" stroke-width="2.97371" stroke-miterlimit="10"/>
<path d="M652.24 192.994L658.394 206.197" stroke="black" stroke-width="2.97371" stroke-miterlimit="10"/>
<path d="M146.746 214.047V453.044" stroke="#ADD0EE" stroke-width="3.56845" stroke-miterlimit="10"/>
<path d="M595.133 231.711H682.176V269.21L595.133 269.686V231.711Z" fill="#ADD0EE"/>
<path d="M596.414 217.675H682.179V232.752H596.949L596.414 218.24" fill="#96C0E6"/>
<path d="M462.993 216.248V269.686H597.066V212.025L462.993 216.248Z" fill="#ADD0EE"/>
<path d="M480.146 214.047V255.62H585.264V215.95" stroke="white" stroke-width="0.743427" stroke-miterlimit="10"/>
<path d="M505.354 232.841C520.039 232.573 534.695 232.603 549.381 232.484H549.737V232.841V243.279V243.636H549.381L526.966 243.517L515.758 243.457C515.312 243.398 514.807 243.546 514.302 243.279C513.796 243.011 513.707 242.357 513.767 241.94L513.796 239.145L513.885 233.525L513.975 239.145L514.004 241.94C513.975 242.416 514.064 242.833 514.45 243.041C514.777 243.249 515.283 243.1 515.758 243.13L526.966 243.071L549.381 242.952L549.024 243.308V232.871L549.381 233.228C534.725 233.079 520.039 233.138 505.354 232.841Z" fill="white"/>
<path d="M180.607 207.178C180.34 203.134 180.161 198.882 180.161 194.718V193.202L181.648 193.232C193.45 193.559 205.252 193.469 217.054 193.618C228.856 193.469 240.657 193.559 252.459 193.232L253.946 193.202V194.718V205.216V206.673L252.489 206.702C228.528 207.03 204.449 207.149 180.607 207.178ZM182.688 205.067C206.054 204.502 229.212 204.026 252.459 203.758L251.003 205.245V194.748L252.489 196.235C240.687 195.908 228.885 195.997 217.083 195.848C205.281 195.997 193.479 195.908 181.677 196.235L183.164 194.748C183.164 198.168 182.956 201.498 182.688 205.067Z" fill="#EDBC33"/>
<path d="M132.508 203.253L695.108 202.866V217.675H132.508V203.253Z" fill="#B6D9EF"/>
<path d="M375.711 66.8191C375.711 66.8191 383.559 67.5922 383.559 69.9712C383.559 69.9712 385.58 102.86 381.419 108.064C377.257 113.239 375.087 115.142 365.484 114.785C355.882 114.428 348.777 93.6419 348.777 93.6419L353.207 79.8439L365.217 73.8965L375.711 66.8191Z" fill="#E09786"/>
<path d="M456.188 307.392L475.392 405.197C475.392 405.197 462.222 414.564 444.772 415.07H428.838L433.892 340.906L456.188 307.392Z" fill="#01509B"/>
<path d="M454.462 325.74L436.03 409.063H441.589L454.462 325.74Z" fill="#0C0C0C"/>
<path d="M355.201 253.598C356.212 253.598 469.059 263.976 460.2 285.238L435.912 418.609H416.44L385.315 409.241C385.315 409.241 413.913 316.61 412.903 309.265L365.606 307.987L337.78 279.142L355.201 253.598Z" fill="#0058B6"/>
<path d="M353.95 250.208C353.95 250.208 426.308 257.791 436.683 262.073C447.058 266.355 447.563 271.321 447.563 271.321L353.95 257.017V250.208Z" fill="#005097"/>
<path d="M490.76 121.446H611.901L614.279 113.655L491.711 113.298L490.76 121.446Z" fill="#017AD6"/>
<path d="M489.241 114.844L474.615 177.798H478.985L493.225 114.844" fill="#0058B4"/>
<path d="M456.217 202.866H599.119L598.168 194.51H471.586L456.217 202.866Z" fill="#0058B4"/>
<path d="M437.724 207.803C438.022 207.803 442.838 209.408 456.215 202.866C469.593 196.324 472.536 192.518 486.092 194.123C486.092 194.123 491.413 186.065 496.14 190.793L498.607 194.48H503.066C503.066 194.48 503.155 175.597 485.705 175.419C468.255 175.24 467.096 183.388 467.096 183.388L430.471 185.083L437.724 207.803Z" fill="#E09786"/>
<path d="M314.977 113.655C314.977 113.655 302.075 122.249 297.764 135.155C297.764 135.155 275.112 207.148 275.885 226.388L279.541 248.275L342.654 269.656C342.654 269.656 360.49 264.719 358.706 251.427C358.706 251.427 340.483 225.496 371.608 181.337L373.749 178.69C373.749 178.69 397.145 212.085 437.753 221.214C437.753 221.214 446.344 196.651 431.807 182.615L415.992 181.723C415.992 181.723 374.254 128.077 367.655 124.271C361.144 120.495 314.977 113.655 314.977 113.655Z" fill="#EAF4F9"/>
<path d="M383.769 68.395C383.799 68.3653 383.799 68.3356 383.829 68.3058C384.186 67.5624 388.912 56.5299 353.952 51.891C353.952 51.891 333.529 45.0812 326.157 75.7996C326.127 75.8888 326.097 75.9483 326.038 76.0375L313.076 92.2144C312.987 92.3334 312.958 92.4523 312.958 92.5713V107.321C312.958 107.47 312.898 107.618 312.809 107.707L301.156 120.286C300.829 120.643 301.037 121.238 301.542 121.268C306.417 121.565 324.403 122.992 331.627 127.75C331.656 127.78 331.686 127.78 331.745 127.81C333.143 128.226 364.416 137.474 373.781 123.23C373.9 123.081 373.9 122.873 373.84 122.695L369.173 109.135C369.143 109.075 369.143 109.016 369.143 108.956L368.905 98.4592C368.905 98.2808 368.816 98.1024 368.668 98.0132C367.241 97.0021 359.779 91.1736 368.727 83.8881C368.846 83.7989 368.965 83.7394 369.113 83.7394C369.976 83.7394 373.216 84.1854 372.978 90.6086C372.978 90.9655 373.246 91.2926 373.602 91.2331C374.792 91.0249 377.17 89.1515 376.991 77.1377C376.991 77.0188 377.021 76.8701 377.11 76.7511L383.769 68.395Z" fill="#332A27"/>
<path d="M383.767 93.523C384.956 92.3335 385.461 91.0548 385.491 89.8356C385.461 89.2111 385.491 88.5866 385.283 87.9622C385.223 87.6648 385.134 87.3079 385.045 87.0106C384.926 86.624 385.134 87.3377 385.372 87.3972C385.491 87.4864 385.669 87.5459 385.877 87.5459H385.61C382.489 87.5161 379.397 87.2485 376.275 86.059C379.397 84.8695 382.489 84.6019 385.61 84.5721H385.937C386.323 84.5721 386.68 84.7208 386.977 84.8993C387.572 85.1669 387.929 86.2671 387.869 86.2671C387.929 86.7132 388.077 87.1295 388.077 87.5756C388.137 88.4677 388.077 89.449 387.75 90.3411C387.185 92.1551 385.431 93.523 383.767 93.523Z" fill="#5478EA"/>
<path d="M281.533 306.441L230.966 453.015" stroke="#3E3E3E" stroke-width="2.97371" stroke-miterlimit="10"/>
<path d="M334.926 306.827L382.282 451.022" stroke="#3E3E3E" stroke-width="2.97371" stroke-miterlimit="10"/>
<path d="M364.298 306.381L411.803 451.022" stroke="#3E3E3E" stroke-width="2.97371" stroke-miterlimit="10"/>
<path d="M305.405 306.113L256.473 450.754" stroke="#3E3E3E" stroke-width="2.97371" stroke-miterlimit="10"/>
<path d="M272.408 332.877L343.369 332.55" stroke="#3E3E3E" stroke-width="2.97371" stroke-miterlimit="10"/>
<path d="M268.721 343.552L360.621 386" stroke="#3E3E3E" stroke-width="2.97371" stroke-miterlimit="10"/>
<path d="M254.51 384.768L345.864 344.207" stroke="#3E3E3E" stroke-width="2.97371" stroke-miterlimit="10"/>
<path d="M252.997 249.94C252.997 249.94 245.297 237.332 263.134 233.228L292.832 219.817C292.832 219.817 337.364 226.389 341.526 242.476C341.526 242.476 339.624 282.592 351.515 292.078C351.515 292.078 355.558 297.639 369.619 298.412C369.619 298.412 379.727 300.196 378.716 309.295H265.869C265.869 309.295 263.074 305.37 268.663 304.121C268.693 304.091 256.415 255.382 252.997 249.94Z" fill="#B1D4E9"/>
<path d="M304.752 248.572H283.497C281.624 248.572 280.078 247.056 280.078 245.153C280.078 243.279 281.594 241.733 283.497 241.733H304.752C306.625 241.733 308.171 243.249 308.171 245.153C308.141 247.026 306.625 248.572 304.752 248.572Z" fill="#EAF4F9"/>
<path d="M599.622 267.336V453.044" stroke="#ADD0EE" stroke-width="3.56845" stroke-miterlimit="10"/>
<path d="M669.453 267.336V453.044" stroke="#ADD0EE" stroke-width="3.56845" stroke-miterlimit="10"/>
<path d="M646.92 197.692C654.751 197.692 661.1 191.341 661.1 183.507C661.1 175.673 654.751 169.323 646.92 169.323C639.088 169.323 632.739 175.673 632.739 183.507C632.739 191.341 639.088 197.692 646.92 197.692Z" fill="#0553B2"/>
<path d="M642.878 197.692C650.709 197.692 657.058 191.341 657.058 183.507C657.058 175.673 650.709 169.323 642.878 169.323C635.046 169.323 628.697 175.673 628.697 183.507C628.697 191.341 635.046 197.692 642.878 197.692Z" fill="#ADD0EE"/>
<path d="M636.483 180.564C637.078 180.712 637.613 181.039 638.118 181.367C638.624 181.664 639.1 182.021 639.575 182.348C640.497 183.032 641.359 183.805 642.191 184.578L640.081 184.667C641.21 182.943 642.429 181.277 643.826 179.761C644.51 178.988 645.253 178.244 646.026 177.56C646.799 176.847 647.631 176.192 648.583 175.627C648.285 176.698 647.899 177.679 647.423 178.631C646.977 179.582 646.472 180.504 645.937 181.367C644.867 183.151 643.618 184.786 642.28 186.333L641.121 187.671L640.17 186.422C639.486 185.53 638.832 184.578 638.237 183.627C637.554 182.645 637.078 181.575 636.483 180.564Z" fill="black"/>
<path d="M489.242 111.752H616.18L615.051 114.844H489.242V111.752Z" fill="#0058B4"/>
<path d="M613.15 115.915L595.313 194.51L597.067 200.338L600.248 194.51L617.461 111.752H613.537L613.15 115.915Z" fill="#0058B4"/>
<path d="M593.854 16.8611H438.496C427.318 16.8611 418.251 25.9309 418.251 37.112V46.2116C418.251 57.3927 427.318 66.4625 438.496 66.4625H550.213L571.588 85.6727V66.4625H593.854C605.031 66.4625 614.098 57.3927 614.098 46.2116V37.112C614.098 25.9011 605.031 16.8611 593.854 16.8611Z" fill="#0158B6"/>
<path d="M475.4 33.8618C475.4 30.0852 469.928 31.5423 469.928 29.2079C469.928 28.2117 470.686 27.736 471.668 27.7657C472.738 27.7954 473.348 28.4348 473.407 29.1336H475.281C475.132 27.3642 473.734 26.3234 471.757 26.3234C469.646 26.3234 468.203 27.4535 468.203 29.2674C468.203 33.0738 473.69 31.4531 473.69 33.951C473.69 34.8282 473.021 35.4676 471.831 35.4676C470.657 35.4676 470.062 34.7836 469.987 33.9361H468.174C468.174 35.765 469.764 36.895 471.831 36.895C474.136 36.895 475.4 35.4081 475.4 33.8618ZM477.4 36.7909H479.095V32.2114C479.095 30.7097 479.912 29.9365 481.161 29.9365C482.396 29.9365 483.213 30.7097 483.213 32.2114V36.7909H484.893V31.9586C484.893 29.6689 483.466 28.4645 481.637 28.4645C480.582 28.4645 479.66 28.866 479.095 29.5499V25.7882H477.4V36.7909ZM486.491 32.6574C486.491 35.1851 488.2 36.9247 490.327 36.9247C491.694 36.9247 492.676 36.2705 493.196 35.5717V36.7909H494.906V28.5983H493.196V29.7878C492.691 29.1187 491.739 28.4645 490.356 28.4645C488.2 28.4645 486.491 30.1298 486.491 32.6574ZM493.196 32.6872C493.196 34.4565 491.992 35.4527 490.713 35.4527C489.449 35.4527 488.23 34.4268 488.23 32.6574C488.23 30.8881 489.449 29.9365 490.713 29.9365C491.992 29.9365 493.196 30.9327 493.196 32.6872ZM498.827 32.479C498.827 30.7394 499.601 30.219 500.85 30.219H501.281V28.4645C500.121 28.4645 499.303 28.97 498.827 29.7878V28.5983H497.132V36.7909H498.827V32.479ZM506.288 29.8919C507.552 29.8919 508.548 30.6948 508.578 31.9586H504.043C504.222 30.6651 505.143 29.8919 506.288 29.8919ZM510.124 34.3525H508.296C507.983 34.9918 507.403 35.4973 506.363 35.4973C505.114 35.4973 504.147 34.6796 504.028 33.3265H510.288C510.333 33.044 510.347 32.7764 510.347 32.4939C510.347 30.0852 508.697 28.4645 506.363 28.4645C503.939 28.4645 502.274 30.1149 502.274 32.6872C502.274 35.2594 504.013 36.9247 506.363 36.9247C508.37 36.9247 509.663 35.7798 510.124 34.3525ZM516.74 27.5129C517.335 27.5129 517.811 27.0371 517.811 26.4275C517.811 25.8179 517.335 25.3421 516.74 25.3421C516.131 25.3421 515.655 25.8179 515.655 26.4275C515.655 27.0371 516.131 27.5129 516.74 27.5129ZM515.878 28.5983V38.3967C515.878 39.0063 515.64 39.2591 514.926 39.2591H514.346V40.6864H515.224C516.681 40.6864 517.573 40.062 517.573 38.3967V28.5983H515.878ZM527.604 32.6872C527.604 30.1149 525.761 28.4645 523.426 28.4645C521.092 28.4645 519.248 30.1149 519.248 32.6872C519.248 35.2594 521.017 36.9247 523.352 36.9247C525.701 36.9247 527.604 35.2594 527.604 32.6872ZM520.973 32.6872C520.973 30.8286 522.118 29.9365 523.396 29.9365C524.66 29.9365 525.865 30.8286 525.865 32.6872C525.865 34.5457 524.616 35.4527 523.352 35.4527C522.073 35.4527 520.973 34.5457 520.973 32.6872ZM530.975 29.8176V25.7882H529.28V36.7909H530.975V35.6014C531.51 36.3151 532.477 36.9247 533.83 36.9247C535.986 36.9247 537.681 35.1851 537.681 32.6574C537.681 30.1298 536 28.4645 533.83 28.4645C532.536 28.4645 531.51 29.0741 530.975 29.8176ZM535.956 32.6574C535.956 34.4268 534.737 35.4527 533.458 35.4527C532.194 35.4527 530.975 34.4565 530.975 32.6872C530.975 30.9327 532.194 29.9365 533.458 29.9365C534.737 29.9365 535.956 30.8881 535.956 32.6574ZM545.468 34.5011C545.378 31.5423 540.754 32.4642 540.754 30.8137C540.754 30.2636 541.23 29.8919 542.137 29.8919C543.059 29.8919 543.609 30.3826 543.669 31.0962H545.364C545.274 29.4607 544.055 28.4645 542.197 28.4645C540.264 28.4645 539.044 29.5202 539.044 30.8286C539.044 33.8321 543.802 32.9102 543.802 34.516C543.802 35.081 543.282 35.4973 542.301 35.4973C541.364 35.4973 540.725 34.9472 540.665 34.2781H538.911C538.985 35.765 540.368 36.9247 542.33 36.9247C544.263 36.9247 545.468 35.8839 545.468 34.5011ZM557.733 28.7619C557.838 27.3494 556.871 26.2194 555.072 26.2194C553.303 26.2194 552.202 27.2453 552.202 28.5983C552.202 29.3269 552.41 29.877 552.99 30.5758C551.355 31.2449 550.567 32.4195 550.567 33.8172C550.567 35.7501 552.054 36.9842 554.284 36.9842C555.726 36.9842 556.871 36.5084 557.867 35.5122L559.146 36.7909H561.361L558.849 34.293C558.968 34.0997 559.101 33.8915 559.22 33.6834L560.558 31.3936H558.73L557.674 33.1332L554.938 30.4123C554.21 29.6243 553.897 29.1633 553.897 28.5983C553.897 28.0482 554.329 27.6021 554.998 27.6021C555.637 27.6021 556.068 28.0036 556.038 28.7619H557.733ZM554.284 35.5419C553.065 35.5419 552.262 34.7539 552.262 33.7577C552.262 32.8359 552.812 32.1222 554.016 31.6464L556.752 34.3971C556.038 35.1554 555.25 35.5419 554.284 35.5419ZM477.57 48.4424H471.86V58.7909H477.57V57.4081H473.555V54.2411H477.124V52.8583H473.555V49.8252H477.57V48.4424ZM479.093 54.6574C479.093 57.1851 480.802 58.9247 482.929 58.9247C484.297 58.9247 485.278 58.2705 485.798 57.5717V58.7909H487.508V50.5983H485.798V51.7878C485.293 51.1187 484.341 50.4645 482.958 50.4645C480.802 50.4645 479.093 52.1298 479.093 54.6574ZM485.798 54.6872C485.798 56.4565 484.594 57.4527 483.315 57.4527C482.051 57.4527 480.832 56.4268 480.832 54.6574C480.832 52.8881 482.051 51.9365 483.315 51.9365C484.594 51.9365 485.798 52.9327 485.798 54.6872ZM491.429 54.479C491.429 52.7394 492.203 52.219 493.452 52.219H493.883V50.4645C492.723 50.4645 491.905 50.97 491.429 51.7878V50.5983H489.734V58.7909H491.429V54.479ZM501.254 58.7909H502.935V53.9586C502.935 51.6689 501.492 50.4645 499.574 50.4645C498.593 50.4645 497.686 50.866 497.136 51.535V50.5983H495.441V58.7909H497.136V54.2114C497.136 52.7097 497.954 51.9365 499.203 51.9365C500.437 51.9365 501.254 52.7097 501.254 54.2114V58.7909ZM508.959 58.7909H510.654V51.7135L513.821 58.7909H514.996L518.148 51.7135V58.7909H519.843V48.4573H518.029L514.416 56.5606L510.788 48.4573H508.959V58.7909ZM529.877 54.6872C529.877 52.1149 528.033 50.4645 525.699 50.4645C523.364 50.4645 521.52 52.1149 521.52 54.6872C521.52 57.2594 523.29 58.9247 525.624 58.9247C527.973 58.9247 529.877 57.2594 529.877 54.6872ZM523.245 54.6872C523.245 52.8286 524.39 51.9365 525.669 51.9365C526.933 51.9365 528.137 52.8286 528.137 54.6872C528.137 56.5457 526.888 57.4527 525.624 57.4527C524.346 57.4527 523.245 56.5457 523.245 54.6872ZM537.366 58.7909H539.046V53.9586C539.046 51.6689 537.604 50.4645 535.686 50.4645C534.704 50.4645 533.797 50.866 533.247 51.535V50.5983H531.552V58.7909H533.247V54.2114C533.247 52.7097 534.065 51.9365 535.314 51.9365C536.548 51.9365 537.366 52.7097 537.366 54.2114V58.7909ZM544.658 51.8919C545.921 51.8919 546.918 52.6948 546.947 53.9586H542.412C542.591 52.6651 543.513 51.8919 544.658 51.8919ZM548.494 56.3525H546.665C546.353 56.9918 545.773 57.4973 544.732 57.4973C543.483 57.4973 542.516 56.6796 542.398 55.3265H548.657C548.702 55.044 548.717 54.7764 548.717 54.4939C548.717 52.0852 547.066 50.4645 544.732 50.4645C542.308 50.4645 540.643 52.1149 540.643 54.6872C540.643 57.2594 542.383 58.9247 544.732 58.9247C546.739 58.9247 548.033 57.7798 548.494 56.3525ZM553.611 56.8431L551.307 50.5983H549.418L552.645 58.6571L550.979 62.6418H552.734L557.76 50.5983H556.005L553.611 56.8431Z" fill="white"/>
<path d="M612.227 33.6327C621.504 33.6327 629.024 26.1104 629.024 16.8313C629.024 7.55207 621.504 0.0297852 612.227 0.0297852C602.951 0.0297852 595.431 7.55207 595.431 16.8313C595.431 26.1104 602.951 33.6327 612.227 33.6327Z" fill="#1D89E4"/>
<path opacity="0.3" d="M595.877 17.7828C595.877 8.50479 603.398 0.981329 612.673 0.981329C619.243 0.981329 624.921 4.75792 627.686 10.2593C625.129 4.22265 619.184 0 612.227 0C602.952 0 595.431 7.52346 595.431 16.8014C595.431 19.5075 596.085 22.0649 597.215 24.3249C596.353 22.3325 595.877 20.1022 595.877 17.7828Z" fill="url(#paint0_linear_449_5465)"/>
<mask id="mask0_449_5465" style="mask-type:alpha" maskUnits="userSpaceOnUse" x="595" y="0" width="35" height="34">
<path d="M612.227 33.6326C621.503 33.6326 629.023 26.1103 629.023 16.8311C629.023 7.55195 621.503 0.0296631 612.227 0.0296631C602.951 0.0296631 595.431 7.55195 595.431 16.8311C595.431 26.1103 602.951 33.6326 612.227 33.6326Z" fill="white"/>
</mask>
<g mask="url(#mask0_449_5465)">
<path opacity="0.3" d="M602.12 27.239L612.198 37.6767L630.243 27.239L632.294 21.7674L625.189 14.7792L612.198 14.9873L603.666 20.1319C603.696 20.1319 602.031 24.9493 602.12 27.239Z" fill="url(#paint1_linear_449_5465)"/>
<path d="M614.486 6.69099V23.2843C614.486 23.5222 614.754 23.6411 614.932 23.4924L625.188 15.1958C625.337 15.0768 625.337 14.8687 625.188 14.7795L614.932 6.48281C614.754 6.33412 614.486 6.45309 614.486 6.69099Z" fill="white"/>
<path d="M614.931 18.9426C613.831 18.5858 612.613 18.4371 611.364 18.5858C610.115 18.7345 608.808 19.1508 607.589 19.8645C606.37 20.5782 605.24 21.5892 604.348 22.8382C603.456 24.0872 602.773 25.574 602.416 27.2393H602.148C601.792 25.574 601.762 23.7303 602.148 21.9164C602.505 20.1024 603.278 18.2885 604.408 16.6529C605.537 15.0174 607.054 13.5602 608.837 12.4302C610.651 11.3002 612.732 10.4973 614.961 10.1405V18.9426H614.931Z" fill="white"/>
</g>
<path d="M514.096 138.456L513.472 145.414L575.96 146.336L576.852 138.456H514.096Z" fill="#B6D9EF"/>
<path d="M569.062 141.34H516.682V142.798H569.062V141.34Z" fill="#E3FFF3"/>
<path d="M513.203 148.834L512.579 155.793L575.067 156.685L575.959 148.834H513.203Z" fill="#B6D9EF"/>
<path d="M568.201 151.719H515.82V153.176H568.201V151.719Z" fill="#E3FFF3"/>
<path d="M511.388 158.855L511.18 165.814L530.265 166.736L530.533 158.855H511.388Z" fill="#B6D9EF"/>
<path d="M528.155 161.74H512.161V163.197H528.155V161.74Z" fill="#E3FFF3"/>
<path d="M532.497 158.855L532.318 165.814L551.404 166.736L551.671 158.855H532.497Z" fill="#B6D9EF"/>
<path d="M549.292 161.74H533.299V163.197H549.292V161.74Z" fill="#E3FFF3"/>
<path d="M555.537 159.242L555.329 166.23L574.414 167.122L574.682 159.242H555.537Z" fill="#B6D9EF"/>
<path d="M572.302 162.126H556.309V163.584H572.302V162.126Z" fill="#E3FFF3"/>
<path d="M688.361 8.11816L663.806 42.4645H713.778L688.361 8.11816Z" stroke="#D4E3F9" stroke-width="2.97371" stroke-miterlimit="10"/>
<path d="M663.806 43.2081V104.229L713.778 103.664L713.154 43.2081H663.806Z" stroke="#D4E3F9" stroke-width="2.97371" stroke-miterlimit="10"/>
<path d="M703.968 54.6865H672.932V92.185H703.968V54.6865Z" stroke="#EEBB12" stroke-width="2.97371" stroke-miterlimit="10"/>
<defs>
<linearGradient id="paint0_linear_449_5465" x1="581.282" y1="3.03199" x2="622.28" y2="18.0688" gradientUnits="userSpaceOnUse">
<stop offset="0.0251" stop-color="#1D89E4"/>
<stop offset="0.1586" stop-color="#1A7ACB"/>
<stop offset="0.4429" stop-color="#12538B"/>
<stop offset="0.8519" stop-color="#051625"/>
<stop offset="0.9944"/>
</linearGradient>
<linearGradient id="paint1_linear_449_5465" x1="611.331" y1="11.192" x2="619.328" y2="29.2438" gradientUnits="userSpaceOnUse">
<stop offset="0.00558659"/>
<stop offset="0.2324" stop-color="#404040"/>
<stop offset="0.6119" stop-color="#A6A6A6"/>
<stop offset="0.876" stop-color="#E6E6E6"/>
<stop offset="1" stop-color="white"/>
</linearGradient>
</defs>
</svg>
