<svg width="794" height="759" viewBox="0 0 794 759" fill="none" xmlns="http://www.w3.org/2000/svg">
<path d="M644.878 540.354L605.536 539.417C605.507 539.89 605.624 540.324 605.74 540.758C605.779 540.903 605.779 540.903 605.818 541.048C610.163 550.897 608.536 562.192 601.326 570.018L598.579 573.081C593.402 578.656 586.042 581.87 578.368 581.599C570.733 581.473 563.587 577.959 558.619 572.154L556.057 568.962C549.378 560.824 548.206 549.504 553.059 539.827C553.165 539.644 553.165 539.644 553.127 539.499C553.3 538.987 553.512 538.62 553.395 538.186L514.526 537.277C507.036 537.112 500.702 542.998 500.576 550.633L499.718 583.903C499.711 585.612 499.269 587.437 498.749 588.972C495.757 596.909 486.776 601.022 479.012 597.518C478.684 597.451 478.462 597.2 478.133 597.133C472.339 594.032 465.265 594.842 460.212 599.143L457.31 601.627C449.712 608.006 449.504 619.386 456.741 626.133L459.62 628.775C464.384 633.238 471.489 634.281 477.441 631.6C477.73 631.523 477.981 631.301 478.415 631.184C486.288 628.144 495.125 632.757 497.73 640.745C498.341 642.443 498.478 644.113 498.509 645.966L497.711 680.617C497.507 687.962 503.276 693.862 510.477 694.105L641.012 697.288C648.357 697.492 654.257 691.722 654.5 684.522L657.683 553.987C657.886 546.641 652.223 540.558 644.878 540.354Z" fill="#00BF6F"/>
<mask id="mask0_454_2" style="mask-type:alpha" maskUnits="userSpaceOnUse" x="464" y="488" width="243" height="213">
<rect x="473.958" y="488.481" width="233.002" height="201.81" transform="rotate(2.60496 473.958 488.481)" fill="#C4C4C4"/>
</mask>
<g mask="url(#mask0_454_2)">
<path d="M632.379 588.917C632.379 588.917 622.361 575.794 620.679 577.33C618.998 578.865 622.21 586.032 624.379 587.09C626.556 588.149 632.379 588.917 632.379 588.917Z" fill="#7C3B01"/>
<path d="M631.32 517.507C631.336 517.5 631.029 502.476 629.581 501.482C628.086 500.463 629.072 504.36 628.95 505.841C628.835 507.322 628.561 510.242 628.169 507.63C627.777 505.017 624.923 496.553 623.874 496.104C622.031 495.313 626.293 505.146 626.162 508.537C626.162 508.537 623.028 500.689 622.047 497.381C622.047 497.381 621.344 494.676 620.148 495.219C618.952 495.762 620.842 498.632 621.226 500.568C621.609 502.503 623.611 507.579 623.886 508.276C624.161 508.965 622.953 507.542 621.931 504.948C620.901 502.353 619.266 498.198 618.372 499.015C617.478 499.831 620.582 505.908 621.716 508.791C622.859 511.673 623.236 512.547 622.349 512.169C621.462 511.79 620.637 510.912 619.751 509.48C618.865 508.048 617.139 509.172 618.369 511.335C619.608 513.499 623.271 516.441 624.627 517.737C624.846 517.944 627.205 520.512 627.36 520.747C627.505 521.013 627.67 521.366 627.855 521.792C630.464 527.862 636.659 548.941 632.657 559.318C630.43 565.075 623.782 575.017 618.888 581.336C622.197 583.932 626.248 588.213 631.254 588.441C639.819 576.093 647.014 564.485 646.758 561.297C646.312 555.717 637.638 528.983 631.32 517.507Z" fill="#FCC675"/>
<path d="M620.68 577.329C615.593 583.891 610.398 590.779 604.411 594.312C596.486 598.991 595.634 602.325 594.978 603.27C601.166 609.826 599.947 628.665 606.362 621.416C611.087 616.073 623.097 602.301 632.378 588.917C628.943 585.442 623.371 582.641 620.68 577.329Z" fill="#ADD0EE"/>
<path d="M576.62 576.599C576.62 576.599 567.818 578.415 565.194 582.683C562.578 586.952 560.336 591.292 566.452 595.808C572.568 600.333 569.183 603.709 569.183 603.709C569.183 603.709 572.336 603.892 574.385 599.621C576.435 595.351 574.979 592.627 574.979 592.627L577.035 596.164C577.035 596.164 579.829 581.769 579.925 579.65C580.029 577.548 576.62 576.599 576.62 576.599Z" fill="#111112"/>
<path d="M547.097 637.174C546.918 637.826 545.336 643.895 545.033 644.172C541.973 646.965 532.577 637.111 532.577 637.111L533.999 650.974C533.999 650.974 541.124 662.165 546.695 662.418C549.818 662.56 553.743 654.923 555.862 646.379C553.165 643.268 550.148 640.112 547.097 637.174Z" fill="#FCC675"/>
<path d="M547.096 637.173C547.002 637.515 546.544 639.287 546.067 640.971L554.575 650.802C555.048 649.384 555.486 647.895 555.861 646.378C553.164 643.268 550.147 640.111 547.096 637.173Z" fill="#FCC675"/>
<path d="M556.099 594.284L559.336 668.277C559.336 668.277 582.907 679.335 600.572 671.914L605.981 611.083L604.402 594.303C604.402 594.303 603.993 594.481 599.835 593.938C595.497 593.371 589.2 596.662 582.799 596.347C577.637 596.089 572.744 591.66 566.609 592.411C563.217 592.83 559.707 593.433 556.099 594.284Z" fill="#0058B6"/>
<path d="M559.342 668.277C559.342 668.277 546.234 698.219 548.07 715.923C549.906 733.626 554.14 789.023 554.14 789.023L559.545 873.596L572.856 874.445L578.699 796.65L586.492 716.79L582.777 669.343L559.342 668.277Z" fill="#01509B"/>
<path d="M600.28 669.881L606.102 710.049L611.375 776.649L620.412 876.106L601.338 874.562L589.229 796.493L589.673 786.725L572.846 717.837L577.422 669.092L600.28 669.881Z" fill="#0058B6"/>
<path d="M620.406 876.105C605.579 757.884 610.527 755.578 599.056 671.947C602.99 633.529 601.515 647.465 605.522 611.047L605.518 611.133C605.105 605.532 604.739 599.925 604.397 594.311C605.688 604.473 606.424 610.93 606.441 611.081C605.36 626.198 608.987 575.838 602.063 672.053L602.055 671.706C607.382 706.851 607.183 694.474 616.909 824.918C617.551 833.446 618.185 841.975 618.74 850.507C619.32 859.033 619.922 867.56 620.406 876.105Z" fill="#C2DEF7"/>
<path d="M584.466 607.415L573.299 714.955C573.286 715.081 573.179 715.17 573.054 715.157C572.929 715.143 572.839 715.037 572.853 714.911L583.269 607.297C583.3 606.961 583.594 606.723 583.93 606.754C584.251 606.784 584.497 607.078 584.466 607.415Z" fill="#8C251C"/>
<path d="M556.029 648.941C557.685 642.262 557.789 632.706 557.532 626.781C556.943 613.278 558.595 593.736 558.595 593.736C558.595 593.736 551.617 593.654 547.641 603.632C544.055 612.613 547.089 632.698 545.489 638.648C548.54 641.578 553.332 645.83 556.029 648.941Z" fill="#ADD0EE"/>
<path d="M527.298 630.408L515.646 886.514L526.78 887.021L538.432 630.914L527.298 630.408ZM532.178 637.038C531.59 637.011 531.133 636.51 531.16 635.922C531.186 635.334 531.687 634.877 532.275 634.903C532.864 634.93 533.321 635.431 533.294 636.019C533.267 636.608 532.767 637.064 532.178 637.038Z" fill="#F2BA0F"/>
<path d="M538.432 630.914L527.298 630.408L527.187 632.856L538.321 633.362L538.432 630.914Z" fill="#6F81A6"/>
<path d="M525.013 635.398C525.013 635.398 529.791 637.865 530.777 639.867C531.764 641.87 527.716 641.489 527.716 641.489C527.716 641.489 532.951 644.81 531.367 646.255C529.784 647.7 528.504 646.809 528.504 646.809C528.504 646.809 532.478 648.798 530.895 650.243C529.312 651.689 527.888 650.5 527.888 650.5C527.888 650.5 529.418 651.599 528.647 652.296C527.884 652.992 526.047 653.451 524.227 652.684C522.406 651.917 521.924 649.544 521.366 646.783C520.808 644.013 521.573 635.824 525.013 635.398Z" fill="#FCC675"/>
<path d="M538.699 637.334C538.699 637.334 534.343 641.303 534.75 643.083C535.156 644.863 539.563 642.712 540.517 641.097C541.472 639.473 538.699 637.334 538.699 637.334Z" fill="#FCC675"/>
<path d="M594.911 589.885L572.894 588.883L576.873 594.395L591.063 595.67L594.911 589.885Z" fill="#42617C"/>
<path d="M591.027 538.004C585.939 536.64 579.248 538.018 576.56 541.969C575.473 543.57 574.972 545.592 574.557 547.452C573.65 551.492 573.303 555.667 573.131 559.795C573.105 560.367 573.087 560.933 573.077 561.506C573.077 561.506 598.353 564.134 598.369 564.135C598.518 564.15 599.007 558.755 599.029 558.441C599.304 554.656 599.323 550.773 598.565 547.043C598.07 544.614 597.205 542.02 595.358 540.276C594.227 539.211 592.713 538.458 591.027 538.004Z" fill="#F2BA0F"/>
<path d="M596.62 545.578C592.127 542.716 584.683 540.262 577.775 543.659C570.867 547.056 570.975 564.736 572.032 568.794C573.237 573.417 575.61 575.357 576.521 575.548L594.408 576.566C602.454 574.754 604.176 550.388 596.62 545.578Z" fill="#451F0A"/>
<path d="M599.214 571.643C601.494 566.109 602.237 559.271 600.425 551.593C599.761 549.77 599.074 547.404 596.975 545.862C591.361 541.887 583.391 540.809 577.754 545.309C575.804 546.864 574.892 547.719 573.537 550.905C571.222 557.026 571.265 565.245 572.039 568.795C569.871 563.389 570.125 546.409 577.714 540.999C582.711 537.436 593.922 539.165 598.12 542.808C604.683 548.029 603.971 564.374 599.214 571.643Z" fill="#F8E000"/>
<path d="M577.275 564.237C577.802 566.84 576.995 569.201 575.471 569.509C573.947 569.817 572.286 567.957 571.76 565.354C571.234 562.751 572.041 560.39 573.565 560.082C575.08 559.773 576.741 561.634 577.275 564.237Z" fill="#FCC675"/>
<path d="M575.511 563.495C575.36 563.347 574.066 560.694 573.07 561.505C572.073 562.317 572.515 568.682 573.887 567.565C575.266 566.449 575.511 563.495 575.511 563.495Z" fill="#D4A052"/>
<path d="M601.018 567.236C600.097 569.851 598.125 571.531 596.601 570.997C595.084 570.464 594.595 567.91 595.516 565.295C596.437 562.679 598.408 561 599.933 561.533C601.449 562.074 601.939 564.62 601.018 567.236Z" fill="#FCC675"/>
<path d="M597.097 565.209C597.097 565.209 597.977 562.788 599.38 563.418C600.782 564.048 599.268 568.799 598.016 569.198C596.771 569.598 596.123 566.738 597.097 565.209Z" fill="#D4A052"/>
<path d="M578.648 578.342L576.867 598.13L583.763 608.311L590.03 601.213L592.57 576.491L578.648 578.342Z" fill="#FCC675"/>
<path d="M592.573 576.491L578.651 578.342L578.585 580.305C578.463 582.988 582.316 586.953 584.377 587.283C587.968 587.855 591.067 583.672 592.212 579.934L592.573 576.491Z" fill="#D4A052"/>
<path d="M576.739 550.225C575.008 552.678 574.808 557.591 574.426 562.008C573.909 568.023 575.982 582.419 583.263 583.458C590.552 584.498 594.698 577.515 596.604 571.925C598.517 566.336 599.004 554.611 595.281 550.534C591.574 546.465 580.21 545.311 576.739 550.225Z" fill="#FCC675"/>
<path d="M576.114 550.197C574.76 552.124 574.327 556.799 574.489 560.155C576.512 555.097 586.329 547.737 587.246 547.126C583.093 546.622 578.055 547.447 576.114 550.197Z" fill="#111112"/>
<path d="M598.109 561.804C598.019 558.254 599.219 553.646 595.69 550.175C593.973 548.493 590.503 547.525 587.258 547.118C588.532 551.272 594.693 559.29 598.109 561.804Z" fill="#111112"/>
<path d="M591.76 572.522C587.647 578.09 580.538 574.826 580.553 574.143L591.76 572.522Z" fill="white"/>
<path d="M584.302 568.496C584.727 567.784 585.526 566.806 586.349 566.694C587.17 566.802 587.882 567.92 588.217 568.666C586.357 566.529 586.393 566.594 584.302 568.496Z" fill="#111112"/>
<path d="M579.175 567.31C580.713 567.38 581.992 566.745 582.031 565.891C582.07 565.038 580.854 564.289 579.316 564.219C577.777 564.149 576.499 564.784 576.46 565.638C576.421 566.491 577.637 567.24 579.175 567.31Z" fill="#FD5E5A"/>
<path d="M596.541 566.709C596.506 567.478 595.207 568.04 593.646 567.969C592.084 567.898 590.841 567.22 590.876 566.451C590.911 565.682 592.211 565.12 593.772 565.191C595.333 565.263 596.576 565.94 596.541 566.709Z" fill="#FD5E5A"/>
<path d="M592.46 562.411C592.435 562.976 591.99 563.42 591.464 563.396C590.939 563.372 590.536 562.89 590.562 562.325C590.587 561.76 591.032 561.316 591.558 561.34C592.076 561.364 592.487 561.838 592.46 562.411Z" fill="#111112"/>
<path d="M589.201 562.624C592.083 558.022 594.541 564.487 596.417 562.662C596.072 563.338 595.113 563.507 594.388 563.191C592.02 562.179 592.317 560.494 589.201 562.624Z" fill="#0C143F"/>
<path d="M580.664 561.56C580.607 562.124 580.985 562.629 581.51 562.676C582.034 562.731 582.502 562.312 582.559 561.741C582.616 561.177 582.238 560.673 581.713 560.625C581.197 560.57 580.722 560.989 580.664 561.56Z" fill="#111112"/>
<path d="M583.857 562.241C581.669 557.274 578.304 563.317 576.708 561.239C576.95 561.958 577.872 562.267 578.636 562.058C581.128 561.393 581.08 559.677 583.857 562.241Z" fill="#0C143F"/>
<path d="M572.898 588.883L576.966 592.441L583.768 608.311L566.612 592.419L572.898 588.883Z" fill="#99CFFF"/>
<path d="M594.911 589.885L591.755 592.548L583.764 608.311L599.837 593.946L594.911 589.885Z" fill="#99CFFF"/>
<path d="M569.808 593.146L576.963 592.441L572.895 588.883L567.325 589.29L569.808 593.146Z" fill="#BBDFFF"/>
<path d="M595.762 593.155L591.756 592.548L594.913 589.885L598.922 590.067L595.762 593.155Z" fill="#BBDFFF"/>
<path d="M555.391 683.8L569.181 689.357L567.497 693.015L554.033 686.34L555.391 683.8Z" fill="#F2BA0F"/>
<path d="M587.085 692.648L599.561 684.559L601.588 688.04L588.391 695.216L587.085 692.648Z" fill="#F2BA0F"/>
</g>
<path d="M297.554 586.119L294.603 583.69C289.647 579.499 282.663 578.61 277.038 581.65C276.752 581.727 276.648 581.909 276.361 581.985C268.591 585.601 259.581 581.729 256.499 573.662C255.973 572.269 255.694 570.658 255.597 569.15L254.813 535.324C254.651 527.854 248.481 521.995 241.012 522.156L202.625 523.089C202.597 523.557 202.712 523.986 202.97 524.377C203.008 524.52 203.008 524.52 203.047 524.663C207.876 534.101 206.63 545.474 200.009 553.381L197.476 556.513C192.579 562.271 185.524 565.695 178.054 565.857C170.442 566.057 163.312 562.907 158.154 557.39L155.374 554.455C148.277 546.851 146.651 535.634 150.942 525.899C150.904 525.756 151.047 525.717 151.009 525.574C151.18 525.068 151.208 524.601 151.274 524.276L112.42 525.182C105.275 525.41 99.5201 531.398 99.7481 538.543L102.888 667.564C103.116 674.709 109.105 680.464 116.25 680.236L245.271 677.095C252.416 676.867 258.171 670.879 257.943 663.734L257.148 629.297C257.051 627.79 257.383 626.167 257.753 624.688C260.348 616.634 269.109 612.139 276.993 615.24C277.317 615.306 277.537 615.554 277.861 615.62C283.798 618.323 290.818 617.055 295.592 612.556L298.317 610.139C305.321 603.663 305.022 592.244 297.554 586.119Z" fill="#E6A800"/>
<mask id="mask1_454_2" style="mask-type:alpha" maskUnits="userSpaceOnUse" x="68" y="472" width="202" height="209">
<rect x="68.8892" y="475.527" width="197.221" height="205.016" transform="rotate(-1.00559 68.8892 475.527)" fill="#C4C4C4"/>
</mask>
<g mask="url(#mask1_454_2)">
<path d="M162.959 556.174L156.975 551.778L152.554 555.695L160.033 559.793L162.959 556.174Z" fill="#7F2F2D"/>
<path d="M179.581 555.221L183.279 549.038L187.387 550.082L184.918 560.712L179.581 555.221Z" fill="#7F2F2D"/>
<path d="M188.223 608.059C188.223 608.059 200.175 683.428 200.336 692.577C200.496 701.727 190.746 751.793 190.746 751.793L175.993 752.052C175.993 752.052 182.483 701.454 182.354 694.077C182.224 686.699 171.927 638.169 171.927 638.169L160.786 609.052L188.223 608.059Z" fill="#01509B"/>
<path d="M149.985 557.213C149.985 557.213 153.444 577.668 149.477 587.185L154.161 610.28L188.216 608.06C188.216 608.06 191.113 588.232 190.864 574.061L191.992 554.114C191.992 554.114 179.049 548.29 170.355 549.032C161.661 549.773 149.985 557.213 149.985 557.213Z" fill="#ADD0EE"/>
<path d="M154.166 610.279C154.166 610.279 145.636 628.883 147.114 637.415C148.591 645.952 154.816 689.386 154.816 689.386L153.308 695.909L158.03 754.723L169.833 754.516L172.946 704.861L170.254 694.578L173.844 646.837L178.926 625.198L177.615 608.751L154.166 610.279Z" fill="#0058B6"/>
<path d="M163.784 536.011L163.149 550.753C163.149 550.753 166.567 560.023 171.71 558.605C176.852 557.186 178.79 549.789 178.79 549.789L174.872 535.822L163.785 536.016L163.784 536.011Z" fill="#FCC675"/>
<path d="M174.87 535.816L163.782 536.011L163.728 537.318C166.359 545.39 172.04 547.391 174.56 547.274C175.588 547.228 176.936 547.46 178.166 547.567L174.87 535.816Z" fill="#D4A052"/>
<path d="M158.363 522.352C159.218 522.309 160.35 522.206 161.526 522.091C164.189 521.85 166.759 521.71 169.158 522.874C168.073 524.699 169.473 527.208 169.838 529.313C166.384 530.08 162.245 530.797 158.889 529.544C158.074 528.069 157.19 525.507 156.901 523.311C157.307 523.015 157.796 522.695 158.363 522.352Z" fill="#220D58"/>
<path d="M164.614 512.357C164.627 512.451 165.762 521.116 165.755 521.022C169.233 520.655 174.075 520.476 177.553 520.448C177.349 518.951 177.03 516.629 175.866 515.504C174.306 513.998 171.59 511.529 168.975 511.341C166.782 511.179 165.668 511.955 164.614 512.357Z" fill="#F2B90C"/>
<path d="M165.008 512.15C165.021 512.244 166.238 521.108 166.225 521.014C169.886 520.644 176.517 520.1 180.179 520.074C179.969 518.606 179.443 517.109 178.748 515.804C177.88 514.163 176.146 512.888 174.525 512.044C172.983 511.243 171.271 510.884 169.534 511.004C168.129 511.1 166.769 511.474 165.455 511.959C165.162 512.064 165.008 512.15 165.008 512.15Z" fill="#F8E000"/>
<path d="M162.799 512.544L164.673 521.191C164.773 521.19 169.375 520.592 175.824 520.479C175.786 518.29 175.604 515.832 174.161 514.068C172.781 512.38 170.523 511.281 168.345 511.325C167.351 511.342 166.371 511.581 165.456 511.959C164.546 512.041 163.528 512.293 162.799 512.544Z" fill="#B65F2E"/>
<path d="M156.848 524.551C159.112 520.927 169.225 520.622 173.741 520.543C173.771 519.386 173.975 516.454 173.185 515.118C170.242 510.168 159.634 510.799 157.07 517.935C156.525 519.478 156.688 522.731 156.848 524.551Z" fill="#F2BA0F"/>
<path d="M161.987 515.259C161.998 515.259 162.003 515.259 162.014 515.253L163.585 514.837C163.646 514.819 163.684 514.757 163.666 514.697C163.648 514.636 163.592 514.598 163.526 514.616L161.955 515.032C161.894 515.05 161.856 515.112 161.874 515.173C161.886 515.228 161.931 515.26 161.987 515.259Z" fill="#591914"/>
<path d="M162.161 516.151C162.172 516.15 162.183 516.15 162.194 516.144L163.609 515.731C163.67 515.713 163.708 515.646 163.69 515.585C163.672 515.524 163.61 515.486 163.544 515.504L162.129 515.918C162.068 515.936 162.03 516.003 162.048 516.064C162.06 516.119 162.111 516.152 162.161 516.151Z" fill="#591914"/>
<path d="M158.585 516.585C158.596 516.585 158.612 516.585 158.629 516.579L160.08 515.987C160.141 515.963 160.167 515.896 160.144 515.836C160.121 515.775 160.054 515.748 159.993 515.772L158.542 516.364C158.481 516.387 158.455 516.454 158.478 516.515C158.495 516.559 158.54 516.586 158.585 516.585Z" fill="#591914"/>
<path d="M158.596 517.308C158.607 517.308 158.624 517.308 158.635 517.302L160.087 516.754C160.147 516.731 160.179 516.663 160.156 516.603C160.133 516.542 160.066 516.51 160.005 516.533L158.553 517.087C158.492 517.11 158.466 517.177 158.484 517.238C158.501 517.282 158.546 517.309 158.596 517.308Z" fill="#591914"/>
<path d="M160.669 515.833C160.672 516.005 160.819 516.147 160.991 516.144C161.164 516.141 161.306 515.999 161.302 515.822C161.299 515.649 161.158 515.507 160.98 515.51C160.802 515.514 160.666 515.66 160.669 515.833Z" fill="#591914"/>
<path d="M178.524 522.732C178.846 522.721 179.173 522.954 179.295 523.246C179.556 523.87 179.766 524.477 179.887 525.047C180.765 529.122 181.902 535.648 181.902 535.648L180.08 535.73C180.08 535.73 178.729 539.443 178.838 541.87C178.947 544.296 175.034 542.953 172.808 543.059C170.582 543.159 165.54 541.464 163.297 534.574C162.516 532.182 161.518 529.137 161.266 526.186C163.738 525.52 166.196 524.054 168.67 523.488C171.957 522.73 175.226 522.84 178.524 522.732Z" fill="#FCC675"/>
<path d="M168.789 523.464C168.67 525.833 170.652 529.549 169.646 531.434L167.648 531.914C167.648 531.914 167.183 530.738 166.372 530.775C165.562 530.811 165.614 536.951 164.315 537.012C163.01 537.074 160.248 531.971 158.922 529.594C158.79 529.363 158.646 529.071 158.496 528.74C158.114 527.891 158.659 526.32 159.48 525.889C162.194 524.458 164.793 524.079 168.789 523.464Z" fill="#111112"/>
<path d="M161.506 524.998C161.319 525.062 161.137 525.143 160.949 525.219C161.131 525.143 161.319 525.062 161.506 524.998Z" fill="#2D1175"/>
<path d="M159.477 525.889C159.378 525.941 159.285 526.009 159.197 526.088C159.285 526.009 159.378 525.941 159.477 525.889Z" fill="#2D1175"/>
<path d="M160.491 525.399C160.177 525.538 159.868 525.688 159.554 525.849C159.863 525.688 160.177 525.538 160.491 525.399Z" fill="#2D1175"/>
<path d="M158.638 526.904C158.617 526.954 158.596 527.005 158.574 527.055C158.596 527.005 158.617 526.954 158.638 526.904Z" fill="#2D1175"/>
<path d="M158.848 526.523C158.81 526.579 158.772 526.635 158.74 526.697C158.772 526.635 158.81 526.579 158.848 526.523Z" fill="#2D1175"/>
<path d="M159.109 526.19C159.055 526.247 159 526.303 158.951 526.371C159 526.303 159.055 526.247 159.109 526.19Z" fill="#2D1175"/>
<path d="M167.309 523.696C167.137 523.721 166.976 523.751 166.81 523.777C166.976 523.746 167.137 523.721 167.309 523.696Z" fill="#2D1175"/>
<path d="M162.547 524.663C162.386 524.71 162.232 524.763 162.071 524.815C162.232 524.763 162.386 524.704 162.547 524.663Z" fill="#2D1175"/>
<path d="M165.993 523.907C165.816 523.938 165.65 523.969 165.473 524C165.65 523.969 165.816 523.938 165.993 523.907Z" fill="#2D1175"/>
<path d="M163.629 524.377C163.469 524.413 163.314 524.46 163.153 524.502C163.314 524.46 163.469 524.413 163.629 524.377Z" fill="#2D1175"/>
<path d="M164.77 524.129C164.604 524.159 164.444 524.201 164.283 524.232C164.444 524.201 164.604 524.165 164.77 524.129Z" fill="#2D1175"/>
<path d="M158.403 527.725C158.398 527.747 158.398 527.769 158.393 527.792C158.398 527.769 158.398 527.747 158.403 527.725Z" fill="#2D1175"/>
<path d="M168.67 523.482C171.267 522.998 172.337 522.84 178.526 522.731C179.181 522.72 179.354 523.378 179.523 523.848C177.348 524.008 173.085 524.583 168.985 525.283C168.846 524.63 168.714 523.476 168.67 523.482Z" fill="#D4A052"/>
<path d="M158.492 527.312C158.481 527.346 158.471 527.385 158.46 527.419C158.471 527.385 158.481 527.351 158.492 527.312Z" fill="#2D1175"/>
<path d="M167.305 523.695C167.743 523.626 168.197 523.557 168.668 523.482C168.197 523.557 167.743 523.626 167.305 523.695Z" fill="#2D1175"/>
<path d="M164.282 524.238C164.061 524.286 163.839 524.329 163.629 524.377C163.839 524.329 164.066 524.281 164.282 524.238Z" fill="#2D1175"/>
<path d="M158.58 527.055C158.548 527.139 158.516 527.228 158.496 527.318C158.516 527.223 158.543 527.139 158.58 527.055Z" fill="#2D1175"/>
<path d="M158.416 528.475C158.392 528.37 158.385 528.264 158.377 528.148C158.379 528.259 158.392 528.37 158.416 528.475Z" fill="#2D1175"/>
<path d="M165.474 524C165.236 524.043 164.998 524.086 164.771 524.129C164.998 524.086 165.241 524.043 165.474 524Z" fill="#2D1175"/>
<path d="M166.809 523.777C166.532 523.821 166.255 523.864 165.995 523.908C166.255 523.864 166.538 523.82 166.809 523.777Z" fill="#2D1175"/>
<path d="M163.155 524.502C162.95 524.555 162.745 524.604 162.546 524.663C162.745 524.604 162.95 524.55 163.155 524.502Z" fill="#2D1175"/>
<path d="M159.477 525.889C159.504 525.872 159.526 525.866 159.548 525.854C159.526 525.866 159.504 525.872 159.477 525.889Z" fill="#2D1175"/>
<path d="M159.198 526.088C159.166 526.117 159.139 526.156 159.106 526.184C159.139 526.156 159.166 526.117 159.198 526.088Z" fill="#2D1175"/>
<path d="M158.458 527.424C158.432 527.524 158.411 527.625 158.396 527.725C158.417 527.625 158.437 527.524 158.458 527.424Z" fill="#2D1175"/>
<path d="M158.74 526.697C158.703 526.764 158.671 526.837 158.638 526.904C158.67 526.831 158.703 526.764 158.74 526.697Z" fill="#2D1175"/>
<path d="M158.951 526.365C158.913 526.416 158.88 526.467 158.848 526.523C158.88 526.472 158.913 526.416 158.951 526.365Z" fill="#2D1175"/>
<path d="M162.07 524.816C161.882 524.874 161.688 524.933 161.506 524.998C161.688 524.928 161.882 524.874 162.07 524.816Z" fill="#2D1175"/>
<path d="M158.393 527.792C158.378 527.903 158.374 528.009 158.376 528.12C158.374 528.009 158.378 527.903 158.393 527.792Z" fill="#2D1175"/>
<path d="M160.947 525.219C160.792 525.283 160.638 525.336 160.489 525.4C160.638 525.336 160.792 525.277 160.947 525.219Z" fill="#2D1175"/>
<path d="M168.786 523.464C168.757 524.009 168.846 524.63 168.979 525.278C159.988 526.819 158.938 527.482 158.416 528.469C157.848 524.912 164.054 524.192 168.786 523.464Z" fill="#111112"/>
<path d="M177.755 526.491L177.955 527.449C177.955 527.449 176.253 527.323 175.37 528.295C174.487 529.266 174.361 529.374 174.361 529.374C174.361 529.374 174.75 527.166 177.755 526.491Z" fill="#111112"/>
<path d="M176.852 530.402C177.834 530.357 177.759 528.586 176.771 528.631C176.365 528.649 175.869 530.447 176.852 530.402Z" fill="#111112"/>
<path d="M177.908 538.397C177.097 538.433 176.149 538.227 175.703 537.535C175.515 537.266 175.444 536.701 175.462 536.795C175.395 536.418 174.824 536.517 174.892 536.894C175.083 537.979 176.236 538.748 177.908 538.397Z" fill="#111112"/>
<path d="M168.009 528.479C168.009 528.479 168.29 532.469 167.33 532.514C166.369 532.558 164.153 530.391 164.399 527.97C164.646 525.548 167.444 525.71 168.009 528.479Z" fill="#FCC675"/>
<path d="M167.318 528.08C167.318 528.08 167.874 529.648 167.181 530.399C166.494 531.156 165.02 529.487 165.73 528.152C166.44 526.817 167.124 527.166 167.318 528.08Z" fill="#D4A052"/>
<path d="M156.844 524.563L156.844 524.552C158.991 520.902 168.445 520.708 172.882 520.558C175.324 520.426 182.66 519.559 182.696 521.608C182.71 522.386 180.964 523.261 179.437 523.633C179.315 523.318 179.205 522.759 178.544 522.782C173.23 522.958 164.175 523.412 159.474 525.895C158.763 526.268 158.262 527.489 158.383 528.364C156.347 527.878 156.056 525.855 156.844 524.563Z" fill="#B96E16"/>
<path d="M156.677 524.454C159.617 519.107 180.654 518.193 183.187 520.349C184.259 521.264 182.961 522.654 180.522 523.33C181.636 522.855 182.129 522.441 182.318 522.132C184.289 518.907 164.67 520.841 159.869 522.67C158.77 523.084 157.714 523.686 157.036 524.626C156.987 524.721 156.542 525.279 156.563 526.179C156.567 526.729 156.716 527.288 157.112 527.709C155.495 526.737 156.677 524.454 156.677 524.454Z" fill="#F8E000"/>
<path d="M158.536 573.156L192.299 571.085C192.299 571.085 193.878 602.204 188.225 608.06L158.597 610.202L158.536 573.156Z" fill="#0058B6"/>
<path d="M161.277 636.95L164.304 613.758C164.304 613.758 152.913 614.675 152.478 614.254C152.042 613.834 143.655 635.82 143.655 635.82L161.277 636.95Z" fill="#58A8F7"/>
<path d="M181.332 613.043L184.173 635.882L195.552 634.576L188.962 612.726L181.332 613.043Z" fill="#58A8F7"/>
<path d="M150.402 554.916L161.972 575.307L166.456 578.773L167.071 572.628L156.975 551.778L150.402 554.916Z" fill="#F2BA0F"/>
<path d="M183.279 549.038L180.74 573.421L183.807 579.107L188.198 572.835L189.135 550.524L183.279 549.038Z" fill="#F2BA0F"/>
<path d="M192.709 614.838C192.709 614.838 198.869 613.474 199.768 614.341C200.667 615.209 193.114 617.348 193.114 617.348C193.114 617.348 201.401 615.863 201.417 616.774C201.433 617.685 191.502 621.144 191.502 621.144L192.709 614.838Z" fill="#FCC675"/>
<path d="M213.439 576.103C204.703 566.499 193.177 554.093 192 554.113C190.084 554.147 188.511 565.838 191.042 571.106C192.94 575.052 198.802 580.756 202.024 584.861C205.384 581.257 209.15 578.035 213.439 576.103Z" fill="#ADD0EE"/>
<path d="M213.44 576.104C209.151 578.035 205.379 581.257 202.025 584.856C203.11 586.232 203.898 587.429 204.136 588.32C205.082 591.848 195.215 608.425 191.266 610.412C187.317 612.398 189.718 614.007 189.741 615.301C189.763 616.59 190.76 617.939 190.773 618.734C190.787 619.528 191.103 620.756 191.499 621.144C191.9 621.531 192.86 619.858 201.495 611.66C210.136 603.462 223.392 589.46 223.351 587.099C223.356 587.099 218.953 582.164 213.44 576.104Z" fill="#FCC675"/>
<path d="M210.384 569.828C210.384 569.828 212.991 574.639 214.488 576.085C215.992 577.531 215.79 578.696 215.79 578.696L203.202 586.475C203.202 586.475 199.434 584.513 199.419 583.651C199.404 582.796 197.869 580.822 197.869 580.822C197.869 580.822 207.496 568.367 210.384 569.828Z" fill="#E1F6FD"/>
<path d="M218.922 586.544C218.922 586.544 217.219 588.58 217.846 589.185C218.473 589.791 223.248 588.929 222.53 587.553C221.805 586.171 218.922 586.544 218.922 586.544Z" fill="#FD5E5A"/>
<path d="M153.336 563.766L149.987 557.213C149.987 557.213 140.261 570.397 134.377 583.065C137.866 584.015 141.146 585.369 144.146 587.2L153.336 563.766Z" fill="#ADD0EE"/>
<path d="M142.572 591.223L144.146 587.2C141.147 585.369 137.867 584.015 134.377 583.065C132.552 587.004 131.092 590.886 130.413 594.315C127.566 608.757 153.613 604.233 153.613 604.233L156.931 597.612C156.936 597.612 141.35 595.668 142.572 591.223Z" fill="#FCC675"/>
<path d="M140.24 578.556C140.24 578.556 137.352 576.773 135.798 577.467C134.243 578.161 130.768 586.296 132.521 587.399C134.274 588.507 142.401 592.149 144.174 591.19C145.941 590.231 146.831 583.964 146.811 582.842C146.792 581.725 140.24 578.556 140.24 578.556Z" fill="#E1F6FD"/>
<path d="M147.954 559.149C149.809 556.872 159.815 556.151 159.604 560.589C159.393 565.027 153.773 576.929 153.773 576.929L147.213 575.833L147.954 559.149Z" fill="#53617D"/>
<path d="M156.29 560.648C156.29 560.648 149.883 561.01 147.961 559.149L147.221 575.833L154.24 576.182L156.29 560.648Z" fill="#99C8F2"/>
<path d="M144.334 560.857L139.828 638.432C139.828 638.432 145.024 644.181 149.657 639.382L150.341 636.247C150.341 636.247 160.213 565.23 159.603 560.589C159.603 560.589 152.275 565.697 144.334 560.857Z" fill="#6F81A6"/>
<path opacity="0.5" d="M151.661 562.94C149.439 562.951 146.918 562.429 144.334 560.857L139.828 638.432C139.828 638.432 141.856 640.675 144.505 641.19L151.661 562.94Z" fill="#C2DEF7"/>
<path d="M157.897 570.361C157.897 570.361 157.19 569.684 157.54 569.039C157.756 568.646 158.417 568.318 159.678 568.007C163.042 567.175 170.13 569.929 171.356 572.369C172.583 574.809 171.431 576.619 171.431 576.619L166.848 582.384L154.682 576.852L157.897 570.361Z" fill="#53617D"/>
<path d="M168.267 574.83L131.808 629.382L129.137 628.546L157.541 569.039C157.343 572.599 165.633 576.093 168.267 574.83Z" fill="#7396B6"/>
<path d="M154.551 569.092C154.551 569.092 164.053 583.356 171.43 576.619L135.855 633.079C135.855 633.079 129.351 634.521 126.574 627.929L154.551 569.092Z" fill="#C2DEF7"/>
<path d="M183.639 576.032C184.495 576.017 185.176 575.311 185.161 574.455C185.146 573.599 184.44 572.918 183.584 572.933C182.728 572.948 182.046 573.654 182.061 574.51C182.076 575.366 182.783 576.047 183.639 576.032Z" fill="#F27F3D"/>
<path d="M132.173 601.364C132.173 601.364 135.095 605.135 139.203 605.564C143.311 605.992 146.247 603.273 147.419 603.252C148.591 603.232 152.152 602.836 153.977 603.637C155.803 604.439 161.932 598.808 161.932 598.808C161.932 598.808 164.568 592.927 163.79 592.596C163.012 592.265 159.55 599.538 158.645 599.554C157.74 599.57 161.94 593.239 161.024 592.633C160.108 592.027 157.993 599.149 155.768 599.605C153.536 600.061 152.38 599.375 153.239 597.982C154.092 596.595 156.484 594.841 155.626 594.356C155.351 594.2 152.268 597.421 148.917 597.402C145.01 597.382 140.569 595.354 136.911 596.507C133.833 597.478 132.362 601.06 132.173 601.364Z" fill="#FCC675"/>
<path d="M131.278 596.733C131.278 596.733 131.015 599.522 132.523 600.246C134.03 600.969 135.082 595.672 131.278 596.733Z" fill="#D4A052"/>
</g>
<path d="M213.556 602.017C213.709 602.589 214.044 603.266 214.197 603.838C214.044 603.266 213.89 602.694 213.556 602.017Z" fill="#FDFFFF"/>
<path d="M212.871 600.051C213.129 600.442 213.244 600.871 213.397 601.443C213.244 600.871 212.986 600.48 212.871 600.051Z" fill="#FDFFFF"/>
<path d="M208.237 593.623C208.056 593.518 208.017 593.375 207.836 593.271C207.874 593.414 208.056 593.518 208.237 593.623Z" fill="#FDFFFF"/>
<path d="M209.34 594.865C209.158 594.76 209.082 594.474 208.9 594.37C209.12 594.617 209.301 594.722 209.34 594.865Z" fill="#FDFFFF"/>
<path d="M524.055 388.291L521.487 386.049C517.034 382.213 510.621 381.274 505.483 383.941C505.258 384.089 505.033 384.237 504.794 384.265C497.652 387.412 489.585 383.76 486.902 376.442C485.642 372.955 484.979 369.398 484.794 365.784L484.107 341.505C484.033 334.727 478.426 329.33 471.648 329.404L447.074 329.642C443.566 329.694 440.106 329.133 436.829 328.066L436.576 327.975C429.381 325.553 425.285 317.553 428.094 310.556C428.185 310.303 428.276 310.05 428.368 309.796C430.882 304.409 430.133 298.074 426.102 293.703L423.717 290.955C417.73 284.391 407.443 284.516 401.696 291.255L399.349 293.956C395.512 298.409 394.932 304.78 397.494 310.052C397.642 310.277 397.67 310.516 397.818 310.741C400.831 317.777 397.045 325.739 389.847 328.407L388.574 328.921C386.015 329.83 383.295 330.394 380.517 330.479L355.001 330.95C348.223 331.024 342.826 336.631 342.9 343.409L343.247 374.029L341.829 378.439C339.407 385.633 331.394 389.61 324.396 386.801C324.143 386.71 323.89 386.618 323.623 386.408C318.235 383.893 311.929 384.881 307.544 388.793L304.915 391.163C298.351 397.15 298.476 407.437 305.215 413.185L307.783 415.427C312.236 419.263 318.648 420.202 323.787 417.534C324.012 417.387 324.237 417.239 324.476 417.211C331.618 414.064 339.684 417.716 342.367 425.034C343.437 427.937 343.91 430.911 344.038 434.047L344.326 460.069C344.4 466.847 350.007 472.244 356.785 472.17L387.884 471.767L391.801 473.122C398.995 475.544 403.091 483.543 400.283 490.541C400.191 490.794 400.1 491.047 399.903 491.434C397.389 496.821 398.377 503.128 402.289 507.513L404.659 510.141C410.646 516.705 420.933 516.58 426.681 509.841L429.014 507.021C432.85 502.568 433.431 496.197 430.749 490.939C430.601 490.714 430.573 490.475 430.425 490.251C427.412 483.214 431.198 475.253 438.396 472.584L442.227 471.162L473.326 470.758C480.104 470.684 485.501 465.078 485.427 458.3L485.471 434.056C485.525 430.414 486.057 426.715 487.23 423.305C489.652 416.11 497.665 412.134 504.663 414.942C504.916 415.034 505.169 415.125 505.436 415.336C510.823 417.85 517.13 416.862 521.515 412.951L524.144 410.58C530.933 404.445 530.793 394.039 524.055 388.291Z" fill="#0960BD"/>
<path d="M385.013 389.916C385.013 384.012 376.421 385.884 376.421 382.524C376.421 381.156 377.405 380.508 378.725 380.556C380.165 380.58 381.053 381.444 381.125 382.548H384.821C384.605 379.524 382.253 377.772 378.821 377.772C375.365 377.772 372.917 379.596 372.917 382.62C372.893 388.692 381.533 386.508 381.533 390.132C381.533 391.332 380.597 392.172 379.013 392.172C377.453 392.172 376.565 391.284 376.469 389.94H372.869C372.917 393.108 375.605 394.932 379.085 394.932C382.901 394.932 385.013 392.556 385.013 389.916ZM393.638 384.012C395.366 384.012 396.758 385.116 396.806 386.868H390.494C390.758 385.044 392.03 384.012 393.638 384.012ZM399.95 390.588H396.326C395.894 391.476 395.102 392.196 393.662 392.196C391.982 392.196 390.638 391.092 390.47 389.124H400.19C400.262 388.692 400.286 388.26 400.286 387.828C400.286 383.868 397.574 381.252 393.734 381.252C389.798 381.252 387.062 383.916 387.062 388.116C387.062 392.292 389.87 394.98 393.734 394.98C397.022 394.98 399.23 393.036 399.95 390.588ZM401.874 388.068C401.874 392.22 404.562 394.98 407.922 394.98C410.034 394.98 411.546 393.972 412.338 392.82V394.764H415.722V381.468H412.338V383.364C411.546 382.26 410.082 381.252 407.946 381.252C404.562 381.252 401.874 383.916 401.874 388.068ZM412.338 388.116C412.338 390.636 410.658 392.028 408.81 392.028C407.01 392.028 405.306 390.588 405.306 388.068C405.306 385.548 407.01 384.204 408.81 384.204C410.658 384.204 412.338 385.596 412.338 388.116ZM422.364 388.14C422.364 385.572 423.564 384.804 425.556 384.804H426.444V381.276C424.596 381.276 423.204 382.164 422.364 383.532V381.468H419.004V394.764H422.364V388.14ZM427.843 388.116C427.843 392.292 430.579 394.98 434.419 394.98C437.731 394.98 439.963 393.108 440.683 390.276H437.059C436.651 391.476 435.787 392.1 434.395 392.1C432.523 392.1 431.275 390.708 431.275 388.116C431.275 385.524 432.523 384.108 434.395 384.108C435.787 384.108 436.675 384.828 437.059 385.956H440.683C439.963 382.98 437.731 381.252 434.419 381.252C430.579 381.252 427.843 383.94 427.843 388.116ZM443.144 394.764H446.504V387.42C446.504 385.284 447.68 384.132 449.504 384.132C451.28 384.132 452.456 385.284 452.456 387.42V394.764H455.816V386.964C455.816 383.292 453.632 381.276 450.632 381.276C448.856 381.276 447.368 381.996 446.504 383.124V377.004H443.144V394.764ZM393.372 420.772C393.372 422.092 392.748 422.932 391.5 422.932C390.228 422.932 389.58 422.068 389.556 420.652H386.196C386.196 424.036 388.404 425.932 391.548 425.932C394.644 425.932 396.756 424.084 396.756 420.772V409.012H393.372V420.772ZM413.516 419.116C413.516 414.916 410.516 412.252 406.676 412.252C402.836 412.252 399.836 414.916 399.836 419.116C399.836 423.292 402.74 425.98 406.58 425.98C410.444 425.98 413.516 423.292 413.516 419.116ZM403.244 419.116C403.244 416.452 404.852 415.18 406.628 415.18C408.404 415.18 410.06 416.452 410.06 419.116C410.06 421.756 408.356 423.052 406.58 423.052C404.78 423.052 403.244 421.756 403.244 419.116ZM419.34 414.412V408.004H415.98V425.764H419.34V423.868C420.156 425.02 421.644 425.98 423.732 425.98C427.14 425.98 429.804 423.22 429.804 419.068C429.804 414.916 427.14 412.252 423.732 412.252C421.716 412.252 420.156 413.188 419.34 414.412ZM426.372 419.068C426.372 421.588 424.668 423.028 422.844 423.028C421.044 423.028 419.34 421.636 419.34 419.116C419.34 416.596 421.044 415.204 422.844 415.204C424.668 415.204 426.372 416.548 426.372 419.068ZM442.566 421.972C442.47 417.1 435.102 418.612 435.102 416.188C435.102 415.42 435.75 414.916 436.998 414.916C438.318 414.916 439.134 415.612 439.23 416.644H442.446C442.254 414.004 440.31 412.252 437.094 412.252C433.806 412.252 431.838 414.028 431.838 416.236C431.838 421.108 439.35 419.596 439.35 421.972C439.35 422.74 438.63 423.34 437.31 423.34C435.966 423.34 435.03 422.572 434.91 421.564H431.526C431.67 424.036 433.998 425.98 437.334 425.98C440.574 425.98 442.566 424.252 442.566 421.972Z" fill="white"/>
<path d="M623.009 489.828C623.009 490.558 623.009 491.288 622.863 492.019C623.009 491.288 623.009 490.558 623.009 489.828Z" fill="#FDFFFF"/>
<path d="M736.879 225.393L609.82 217.069C602.81 216.631 596.676 221.888 596.238 229.044L594.047 261.904C593.901 263.657 593.463 265.263 592.878 266.87C589.665 274.464 580.757 278.115 573.308 274.464C573.016 274.318 572.724 274.172 572.432 274.026C566.882 270.813 559.872 271.251 554.907 275.195L551.84 277.531C544.246 283.373 543.515 294.618 550.233 301.337L552.862 303.965C557.39 308.493 564.254 309.807 570.095 307.47C570.388 307.324 570.68 307.178 570.972 307.178C578.712 304.55 587.183 309.369 589.373 317.255C589.812 318.862 589.958 320.614 589.958 322.367L587.767 355.665C587.329 362.967 592.878 369.393 600.181 369.832L638.006 372.314C638.006 372.022 637.86 371.584 637.86 371.292C637.86 371.146 637.86 371.146 637.714 371C633.771 361.215 635.962 350.262 643.264 342.959L646.039 340.184C651.296 334.927 658.599 332.152 666.047 332.736C673.495 333.174 680.359 336.825 684.887 342.813L687.223 345.88C693.503 354.059 694.234 365.158 688.976 374.359C688.976 374.505 688.83 374.505 688.83 374.651C688.684 374.943 688.538 375.381 688.538 375.673L726.802 378.156C733.812 378.594 739.946 373.337 740.384 366.18L748.708 239.122C749.292 231.965 744.035 225.977 736.879 225.393Z" fill="#FF9788"/>
<mask id="mask2_454_2" style="mask-type:alpha" maskUnits="userSpaceOnUse" x="528" y="176" width="266" height="227">
<path d="M781.051 211.855L623.179 176.422C614.459 174.381 605.74 179.946 603.7 188.851L594.609 229.664C594.053 231.705 593.311 233.745 592.012 235.601C586.447 244.505 574.574 247.288 566.04 241.352C565.669 241.166 565.298 240.795 565.113 240.609C558.805 235.601 549.9 234.673 542.851 238.569L538.584 240.795C527.824 246.546 524.671 260.645 531.906 270.477L534.688 274.373C539.512 280.866 547.674 284.02 555.651 282.165C556.022 281.979 556.579 281.979 556.95 281.979C567.339 280.124 576.8 287.916 578.099 298.304C578.284 300.531 578.284 302.571 577.728 304.797L568.452 346.167C566.411 355.257 572.162 364.347 581.252 366.388L628.188 376.962C628.188 376.591 628.188 376.035 628.188 375.664C628.188 375.478 628.188 375.478 628.188 375.293C625.219 362.307 630.043 348.95 640.617 341.344L644.698 338.375C652.304 332.81 661.951 330.769 671.227 332.81C680.503 334.851 688.294 340.787 692.932 349.135L695.344 353.588C701.651 365.089 700.353 379.189 692.004 389.577C692.004 389.763 691.819 389.763 691.819 389.948C691.633 390.319 691.262 390.69 691.262 391.061L738.754 401.821C747.473 403.862 756.192 398.296 758.233 389.577L793.666 231.705C795.336 222.615 789.77 213.895 781.051 211.855Z" fill="#E6A800"/>
</mask>
<g mask="url(#mask2_454_2)">
<mask id="mask3_454_2" style="mask-type:alpha" maskUnits="userSpaceOnUse" x="534" y="77" width="276" height="275">
<rect x="534.952" y="77.136" width="274.194" height="274.194" fill="#C4C4C4"/>
</mask>
<g mask="url(#mask3_454_2)">
<path d="M654.305 246.1L650.463 239.651L645.762 244.848L652.877 248.387L654.305 246.1Z" fill="#803A2A"/>
<path d="M683.394 240.867L677.622 245.69L683.394 250.282L684.93 244.534L683.394 240.867Z" fill="#803A2A"/>
<path d="M622.375 357.452C622.369 357.041 622.338 353.138 622.338 353.32C622.326 350.609 624.044 349.091 625.993 349.024C626.174 349.024 630.439 348.976 630.167 348.982C638.032 348.885 637.07 350.531 637.13 358.511H635.019C635.019 358.324 635.061 353.265 635.061 353.556C635.067 351.045 634.16 350.9 631.813 350.882C631.419 350.876 626.67 350.839 626.858 350.839C626.222 350.863 626.029 350.779 625.509 350.936C623.893 351.45 624.057 352.963 624.051 354.155L624.02 357.458H622.375V357.452Z" fill="#0C1433"/>
<path d="M625.236 343.288C625.236 343.288 623.766 351.009 625.236 352.479C626.706 353.949 627.723 352.479 628.473 352.479C629.229 352.479 629.713 353.12 630.355 352.479C630.996 351.838 633.259 352.739 633.894 352.104C634.529 351.469 633.174 344.269 633.174 342.762C633.174 341.255 625.236 343.288 625.236 343.288Z" fill="#FCC675"/>
<path d="M692.641 247.184C692.641 247.184 701.916 267.302 707.076 282.131C708.903 287.389 705.171 300.44 705.171 300.44C699.695 300.827 691.831 297.275 691.238 295.424C690.318 292.508 692.641 247.184 692.641 247.184Z" fill="#233061"/>
<path d="M640.224 248.388L645.947 320.696L688.726 323.407L692.64 247.184C692.64 247.184 682.095 239.651 666.432 239.651C650.769 239.651 640.224 248.388 640.224 248.388Z" fill="#ADD0EE"/>
<path d="M689.585 306.684L692.641 285.925L685.108 259.533H648.96C648.96 259.533 647.454 296.289 640.224 298.697V305.625C640.224 305.625 640.158 335.151 637.181 354.131C634.477 371.368 646.02 452.329 648.41 466.928L656.341 466.656H662.216C662.216 466.656 656.341 410.164 656.341 401.13C656.341 392.091 666.432 350.065 666.432 350.065L674.418 405.202V466.662L688.878 465.458L694.074 399.255L689.585 306.684Z" fill="#0058B6"/>
<path d="M690.407 323.704L689.584 306.684L691.375 294.535C683.468 288.847 653.684 267.465 653.291 267.858C652.843 268.306 664.532 291.745 664.532 291.745C664.532 291.745 662.039 299.671 666.02 303.659C669.359 306.992 684.968 317.774 690.407 323.704Z" fill="#F2BA0F"/>
<path d="M648.961 259.533C649.04 267.707 647.255 296.616 640.224 298.697C646.172 295.793 648.295 267.186 648.961 259.533Z" fill="#7C5101"/>
<path d="M650.467 239.651L656.342 260.906L655.21 265.166L650.467 260.906L643.915 243.191L650.467 239.651Z" fill="#F2BA0F"/>
<path d="M683.396 240.867L678.707 260.906V265.165L683.68 261.946L689.779 243.868L683.396 240.867Z" fill="#F2BA0F"/>
<path d="M640.224 301.94H690.287L689.785 310.75H640.224V301.94Z" fill="#F2BA0F"/>
<path d="M640.224 248.388C640.224 248.388 633.896 252.787 630.502 262.183C627.114 271.579 621.844 309.618 621.844 320.92C621.844 332.217 623.574 343.966 623.574 343.966H634.192C634.192 343.966 637.81 301.263 638.935 296.174C640.067 291.092 641.422 286.875 643.908 281.526C646.401 276.184 640.224 248.388 640.224 248.388Z" fill="#ADD0EE"/>
<path d="M665.252 258.559L732.255 338.091L726.604 346.453L652.275 271.434C652.275 271.434 652.928 258.559 665.252 258.559Z" fill="#6F81A6"/>
<path d="M664.023 263.756L661.76 260.912C661.76 260.912 654.307 266.448 654.307 270.986C654.307 275.524 721.412 335.834 721.412 335.834L724.8 334.479L664.023 263.756Z" fill="#5C667B"/>
<path d="M654.307 270.986C654.307 270.986 665.251 267.598 665.251 258.559L732.254 338.091C732.254 338.091 732.253 344.19 726.603 346.453L654.307 270.986Z" fill="#79BCF8"/>
<path d="M685.714 249.18L699.272 339.223H706.653L701.529 249.18C701.529 249.18 696.713 243.644 685.714 249.18Z" fill="#708292"/>
<path d="M699.276 299.259C699.276 299.259 696.167 303.422 691.702 303.967C687.237 304.511 683.988 301.607 682.712 301.607C681.435 301.607 677.551 301.244 675.579 302.152C673.607 303.059 666.825 297.045 666.825 297.045C666.825 297.045 663.842 290.692 664.683 290.317C665.524 289.942 669.432 297.795 670.418 297.795C671.405 297.795 666.71 290.983 667.696 290.305C668.682 289.627 671.12 297.342 673.552 297.795C675.99 298.249 677.237 297.481 676.275 295.98C675.319 294.486 672.681 292.622 673.607 292.078C673.903 291.902 677.321 295.345 680.969 295.266C685.223 295.169 690.02 292.876 694.025 294.062C697.395 295.061 699.071 298.933 699.276 299.259Z" fill="#FCC675"/>
<path d="M682.15 261.922C682.15 262.485 681.557 262.939 680.819 262.939C680.087 262.939 679.488 262.485 679.488 261.922C679.488 261.36 680.081 260.906 680.819 260.906C681.551 260.906 682.15 261.366 682.15 261.922Z" fill="#7C5101"/>
<path d="M654.307 261.118C654.307 261.566 653.854 261.923 653.291 261.923C652.728 261.923 652.274 261.56 652.274 261.118C652.274 260.67 652.728 260.313 653.291 260.313C653.854 260.313 654.307 260.67 654.307 261.118Z" fill="#7C5101"/>
<path d="M707.08 282.131C707.08 282.131 689.831 298.104 680.139 293.288L679.807 304.542C679.807 304.542 702.966 305.903 706.656 298.703C710.34 291.497 707.08 282.131 707.08 282.131Z" fill="#ADD0EE"/>
<path d="M669.737 212.176L653.287 219.473L650.982 218.644L651.387 215.153L657.377 210.113L672.362 203.948L680.572 202.925L680.838 203.802L679.755 205.878L669.737 212.176Z" fill="#3F1817"/>
<path d="M662.231 231.519C661.88 231.295 657.5 220.405 657.5 220.405C657.5 220.405 654.577 212.23 656.465 210.845C658.353 209.459 662.836 204.661 666.762 204.577C670.688 204.492 673.326 205.666 673.677 205.89C674.028 206.113 676.575 210.409 676.575 210.409C676.575 210.409 675.389 208.963 674.778 214.336C674.173 219.703 662.231 231.519 662.231 231.519Z" fill="#381A3F"/>
<path d="M672.139 231.023C671.673 232.414 671.873 242.343 671.504 244.842C671.141 247.31 659.876 251.134 659.652 242.155C659.428 233.177 660.317 222.619 660.317 222.619L672.139 231.023Z" fill="#FCC675"/>
<path d="M672.138 231.023L668.218 228.233L660.323 222.619C660.323 222.619 660.323 222.625 660.323 222.631C660.323 222.631 660.323 222.637 660.323 222.643C660.323 222.643 660.323 222.643 660.323 222.649C660.323 222.685 660.317 222.758 660.305 222.855C660.281 223.181 660.226 223.835 660.166 224.736V224.742C660.153 224.924 660.141 225.118 660.129 225.317C660.129 225.329 660.129 225.341 660.129 225.36C660.087 226.013 660.039 226.763 659.99 227.586C659.99 227.634 659.984 227.677 659.984 227.725C659.972 227.919 659.96 228.119 659.954 228.324V228.33C659.948 228.433 659.942 228.542 659.936 228.651C659.936 228.663 659.936 228.675 659.936 228.687C659.936 228.73 659.93 228.766 659.93 228.808C659.93 228.826 659.93 228.839 659.93 228.857C659.924 228.929 659.924 228.996 659.918 229.068C661.382 233.879 666.929 239.106 671.727 239.729C671.739 239.396 671.757 239.064 671.781 238.725C671.824 235.355 671.878 231.815 672.138 231.023Z" fill="#D4A052"/>
<path d="M659.881 214.403C658.435 217.991 658.362 224.561 661.798 229.523C665.241 234.49 669.984 237.049 673.39 234.544C676.79 232.04 677.764 216.327 675.308 212.285C672.846 208.237 662.077 208.927 659.881 214.403Z" fill="#FCC675"/>
<path d="M659.88 229.48C659.88 229.48 659.118 224.343 657.145 223.091C655.173 221.838 654.284 221.076 653.927 219.261C653.57 217.446 649.208 213.731 650.285 210.748C651.362 207.765 654.29 208.872 656.909 203.681C659.529 198.49 662.354 195.622 668.459 197.51C674.563 199.397 675.41 203.124 675.41 203.124C675.41 203.124 678.102 202.658 679.748 205.883C681.393 209.108 680.214 210.935 679.155 212.448C679.155 212.448 679.385 208.195 677.921 208.485C676.463 208.781 677.933 213.458 677.933 213.458C677.933 213.458 675.743 211.667 673.407 208.89C671.072 206.119 671.647 209.362 672.337 212.878C673.026 216.393 667.848 213.077 665.543 210.536C663.238 207.995 659.946 210.373 658.742 213.973C657.545 217.585 662.729 223.248 659.88 229.48Z" fill="#111112"/>
<path d="M661.014 220.035C661.014 220.035 658.86 216.357 657.741 217.96C656.621 219.557 657.541 224.331 659.919 224.38C662.297 224.422 661.014 220.035 661.014 220.035Z" fill="#FCC675"/>
<path d="M659.797 220.302C659.797 220.302 659.876 218.172 658.72 218.88C657.565 219.588 658.726 223.006 659.797 222.94C660.862 222.867 659.797 220.302 659.797 220.302Z" fill="#D4A052"/>
<path d="M671.999 219.322C672.411 220.296 672.689 221.312 672.865 222.353C673.209 224.61 672.846 225.572 672.834 225.717C672.574 225.669 671.872 225.566 670.953 225.324C671.546 225.306 672.138 225.324 672.725 225.354L672.526 225.499C672.622 223.454 672.223 221.409 671.999 219.322Z" fill="#172866"/>
<path d="M669.088 219.866C669.215 220.501 668.937 221.1 668.465 221.191C667.999 221.288 667.515 220.846 667.388 220.205C667.261 219.57 667.539 218.971 668.011 218.88C668.483 218.783 668.961 219.225 669.088 219.866Z" fill="#2C2C2C"/>
<path d="M675.538 218.946C675.665 219.581 675.387 220.18 674.915 220.271C674.449 220.368 673.965 219.926 673.838 219.285C673.711 218.643 673.989 218.05 674.461 217.96C674.927 217.869 675.411 218.311 675.538 218.946Z" fill="#2C2C2C"/>
<path d="M665.422 218.245C665.422 218.245 666.415 216.508 668.06 216.175C669.712 215.843 669.21 217.228 668.829 217.307C668.448 217.385 665.362 217.924 665.422 218.245Z" fill="#172866"/>
<path d="M673.287 215.37C673.287 215.37 675.242 215.951 675.611 216.847C675.611 216.847 673.542 216.677 673.172 216.193C672.803 215.709 673.287 215.37 673.287 215.37Z" fill="#172866"/>
<path d="M666.797 228.064C666.797 228.064 671.843 229.958 674.578 228.137C674.578 228.137 673.809 230.678 673.113 231.132C671.643 232.1 668.037 231.368 666.797 228.064Z" fill="white"/>
<path d="M656.058 197.262C656.106 197.383 660.305 207.971 660.256 207.856C664.54 206.283 670.595 204.516 674.994 203.372C674.256 201.545 673.118 198.708 671.285 197.655C668.835 196.245 664.612 193.994 661.248 194.587C658.423 195.083 657.268 196.421 656.058 197.262Z" fill="#F2B90C"/>
<path d="M656.494 196.874C656.543 196.989 660.905 207.801 660.856 207.693C665.369 206.059 673.573 203.264 678.201 202.06C677.469 200.269 676.326 198.544 675.031 197.116C673.41 195.319 670.814 194.261 668.497 193.71C666.289 193.19 664.014 193.28 661.854 193.988C660.112 194.557 658.509 195.465 657.002 196.493C656.664 196.717 656.494 196.874 656.494 196.874Z" fill="#F8E000"/>
<path d="M653.833 198.079L658.957 208.413C659.084 208.382 664.71 206.162 672.829 203.966C672.085 201.213 671.069 198.163 668.685 196.384C666.404 194.69 663.198 194.019 660.457 194.769C659.211 195.108 658.049 195.719 657.009 196.487C655.877 196.887 654.673 197.528 653.833 198.079Z" fill="#B65F2E"/>
<path d="M650.129 215.153C651.835 209.846 664.527 206.24 670.208 204.704C669.875 203.233 669.204 199.458 667.776 198.024C662.476 192.706 649.269 196.88 648.302 206.718C648.102 208.842 649.348 212.902 650.129 215.153Z" fill="#F2BA0F"/>
<path d="M650.13 215.164L650.124 215.152C651.678 209.852 663.566 206.597 669.132 204.994C672.182 204.056 681.178 200.619 681.873 203.191C682.14 204.165 681.402 204.746 679.756 205.871C679.502 205.508 681.65 203.3 677.929 204.062C671.153 205.448 661.171 206.646 652.453 215.364C650.638 217.179 652.066 218.728 653.294 219.466C650.547 219.521 649.543 217.052 650.13 215.164Z" fill="#B96E16"/>
<path d="M649.881 215.086C651.895 207.39 678.2 199.531 682.091 201.455C683.736 202.272 682.617 204.256 679.755 205.884C681.014 204.928 681.419 204.432 681.564 203.984C683.034 199.283 658.835 207.971 653.347 211.813C652.089 212.69 650.946 213.786 650.389 215.189C650.359 215.322 649.972 216.169 650.286 217.307C650.468 217.997 650.831 218.662 651.466 219.068C649.119 218.348 649.881 215.086 649.881 215.086Z" fill="#F8E000"/>
</g>
</g>
<path d="M366.751 319.933C366.738 320.663 366.725 321.393 366.566 322.121C366.725 321.393 366.738 320.663 366.751 319.933Z" fill="#FDFFFF"/>
<path d="M485.316 57.5698L358.425 46.9823C351.424 46.4193 345.197 51.5668 344.632 58.714L341.856 91.5298C341.679 93.2795 341.212 94.8779 340.599 96.4738C337.251 104.01 328.279 107.501 320.897 103.718C320.608 103.567 320.318 103.416 320.029 103.264C314.537 99.9531 307.52 100.266 302.485 104.12L299.377 106.402C291.68 112.108 290.749 123.338 297.347 130.175L299.928 132.85C304.374 137.458 311.214 138.894 317.096 136.662C317.391 136.521 317.686 136.38 317.978 136.385C325.764 133.895 334.147 138.865 336.197 146.789C336.606 148.403 336.721 150.158 336.69 151.91L333.906 185.164C333.338 192.457 338.772 198.981 346.066 199.549L383.841 202.706C383.846 202.414 383.708 201.973 383.713 201.681C383.716 201.535 383.716 201.535 383.572 201.386C379.804 191.532 382.19 180.62 389.621 173.449L392.445 170.724C397.795 165.561 405.146 162.917 412.582 163.633C420.022 164.204 426.82 167.977 431.239 174.045L433.521 177.153C439.654 185.442 440.187 196.553 434.766 205.658C434.763 205.804 434.617 205.802 434.615 205.948C434.463 206.237 434.31 206.673 434.304 206.965L472.518 210.129C479.519 210.692 485.746 205.544 486.311 198.397L496.899 71.5067C497.61 64.362 492.46 58.2814 485.316 57.5698Z" fill="#427CC0"/>
<mask id="mask4_454_2" style="mask-type:alpha" maskUnits="userSpaceOnUse" x="277" y="4" width="268" height="234">
<path d="M532.173 48.9353L376.328 5.44307C367.725 2.95743 358.731 8.06784 356.236 16.856L345.063 57.1486C344.402 59.158 343.556 61.1578 342.164 62.9438C336.149 71.551 324.149 73.7205 315.931 67.3537C315.57 67.1494 315.219 66.7598 315.043 66.565C309.001 61.2389 300.155 59.8553 292.915 63.384L288.54 65.3882C277.499 70.5791 273.625 84.4976 280.346 94.6884L282.925 98.7219C287.409 105.454 295.399 109.023 303.46 107.58C303.841 107.413 304.396 107.442 304.767 107.461C315.237 106.142 324.286 114.409 325.049 124.851C325.12 127.083 325.016 129.121 324.345 131.316L312.958 172.155C310.453 181.128 315.73 190.502 324.703 193.006L371.034 205.977C371.053 205.606 371.081 205.05 371.1 204.68C371.11 204.494 371.11 204.494 371.119 204.309C368.822 191.188 374.325 178.096 385.275 171.043L389.504 168.288C397.386 163.121 407.124 161.578 416.283 164.092C425.442 166.606 432.918 172.935 437.121 181.51L439.301 186.081C445.01 197.891 442.989 211.905 434.119 221.851C434.109 222.037 433.924 222.027 433.914 222.212C433.71 222.574 433.32 222.925 433.301 223.296L480.178 236.48C488.781 238.965 497.774 233.855 500.26 225.252L543.752 69.4068C545.886 60.4144 540.776 51.4209 532.173 48.9353Z" fill="#E6A800"/>
</mask>
<g mask="url(#mask4_454_2)">
<mask id="mask5_454_2" style="mask-type:alpha" maskUnits="userSpaceOnUse" x="279" y="-99" width="289" height="289">
<rect x="293.315" y="-98.2415" width="274.194" height="274.194" transform="rotate(2.94307 293.315 -98.2415)" fill="#C4C4C4"/>
</mask>
<g mask="url(#mask5_454_2)">
<path d="M403.836 76.6282L400.33 69.9897L395.368 74.9387L402.292 78.8389L403.836 76.6282Z" fill="#803A2A"/>
<path d="M433.155 72.8956L427.143 77.4151L432.671 82.2976L434.501 76.6362L433.155 72.8956Z" fill="#803A2A"/>
<path d="M366.23 186.194C366.245 185.783 366.415 181.884 366.406 182.065C366.533 179.357 368.327 177.929 370.276 177.962C370.457 177.972 374.719 178.142 374.447 178.135C382.306 178.442 381.261 180.036 380.912 188.009L378.803 187.9C378.813 187.713 379.115 182.664 379.1 182.954C379.235 180.447 378.336 180.255 375.993 180.116C375.6 180.09 370.859 179.81 371.047 179.82C370.411 179.811 370.222 179.717 369.694 179.847C368.055 180.278 368.14 181.797 368.073 182.987L367.873 186.284L366.23 186.2L366.23 186.194Z" fill="#0C1433"/>
<path d="M369.815 172.195C369.815 172.195 367.95 179.83 369.343 181.374C370.736 182.918 371.826 181.502 372.576 181.54C373.331 181.579 373.781 182.244 374.455 181.637C375.128 181.029 377.342 182.046 378.009 181.444C378.676 180.842 377.692 173.582 377.769 172.077C377.847 170.573 369.815 172.195 369.815 172.195Z" fill="#FCC675"/>
<path d="M442.066 79.6788C442.066 79.6788 450.295 100.246 454.687 115.321C456.242 120.666 451.844 133.507 451.844 133.507C446.356 133.613 438.684 129.662 438.187 127.783C437.418 124.823 442.066 79.6788 442.066 79.6788Z" fill="#233061"/>
<path d="M389.656 78.1896L391.659 150.696L434.242 155.6L442.065 79.6784C442.065 79.6784 431.921 71.6141 416.278 70.8099C400.636 70.0057 389.656 78.1896 389.656 78.1896Z" fill="#ADD0EE"/>
<path d="M435.959 138.943L440.076 118.368L433.909 91.6245L397.808 89.7685C397.808 89.7685 394.416 126.399 387.073 128.433L386.717 135.351C386.717 135.351 385.135 164.835 381.187 183.637C377.602 200.713 384.973 282.159 386.61 296.862L394.545 296.998L400.411 297.299C400.411 297.299 397.445 240.58 397.909 231.558C398.373 222.531 410.609 181.078 410.609 181.078L415.753 236.553L412.598 297.932L427.1 297.472L435.689 231.622L435.959 138.943Z" fill="#0058B6"/>
<path d="M435.905 155.983L435.957 138.943L438.369 126.902C430.765 120.816 402.118 97.9327 401.705 98.3053C401.235 98.7295 411.705 122.738 411.705 122.738C411.705 122.738 408.808 130.526 412.579 134.712C415.743 138.213 430.778 149.782 435.905 155.983Z" fill="#F2BA0F"/>
<path d="M391.061 185.998C388.573 183.241 383.563 183.716 381.081 184.158C379.369 193.43 380.428 218.888 382.089 243.497C383.955 242.666 386.172 241.617 388.26 240.483C393.227 237.781 394.448 189.753 391.061 185.998Z" fill="#096CD6"/>
<path d="M397.809 89.7684C397.468 97.9358 394.201 126.715 387.073 128.432C393.161 125.837 396.751 97.3779 397.809 89.7684Z" fill="#7C5101"/>
<path d="M400.334 69.9903L405.109 91.519L403.761 95.7148L399.243 91.2174L393.609 73.1887L400.334 69.9903Z" fill="#F2BA0F"/>
<path d="M433.157 72.8951L427.445 92.6669L427.227 96.9207L432.359 93.9615L439.378 76.2199L433.157 72.8951Z" fill="#F2BA0F"/>
<path d="M386.906 131.671L436.903 134.242L435.949 143.014L386.453 140.469L386.906 131.671Z" fill="#F2BA0F"/>
<path d="M389.656 78.19C389.656 78.19 383.11 82.2579 379.238 91.4676C375.372 100.677 368.157 138.396 367.576 149.683C366.996 160.964 368.121 172.787 368.121 172.787L378.725 173.332C378.725 173.332 384.53 130.871 385.915 125.847C387.306 120.829 388.876 116.687 391.634 111.474C394.397 106.266 389.656 78.19 389.656 78.19Z" fill="#ADD0EE"/>
<path d="M414.128 89.632L476.959 172.5L470.887 180.56L400.507 101.824C400.507 101.824 401.821 88.9992 414.128 89.632Z" fill="#6F81A6"/>
<path d="M412.634 94.7593L410.52 91.8032C410.52 91.8032 402.792 96.9494 402.559 101.481C402.326 106.013 466.247 169.689 466.247 169.689L469.7 168.51L412.634 94.7593Z" fill="#5C667B"/>
<path d="M402.559 101.481C402.559 101.481 413.663 98.6594 414.127 89.632L476.958 172.5C476.958 172.5 476.645 178.591 470.885 180.56L402.559 101.481Z" fill="#79BCF8"/>
<path d="M435.045 81.3169L443.962 171.936L451.333 172.315L450.839 82.1288C450.839 82.1288 446.314 76.3528 435.045 81.3169Z" fill="#708292"/>
<path d="M446.018 132.026C446.018 132.026 442.698 136.024 438.212 136.338C433.725 136.653 430.629 133.586 429.354 133.52C428.08 133.455 424.219 132.893 422.203 133.698C420.187 134.503 413.723 128.149 413.723 128.149C413.723 128.149 411.07 121.651 411.929 121.319C412.788 120.988 416.288 129.032 417.273 129.082C418.258 129.133 413.919 122.088 414.939 121.462C415.958 120.836 417.997 128.665 420.403 129.243C422.814 129.822 424.098 129.118 423.215 127.57C422.337 126.029 419.798 124.032 420.751 123.536C421.056 123.376 424.293 126.99 427.94 127.098C432.192 127.22 437.101 125.176 441.04 126.566C444.354 127.736 445.829 131.689 446.018 132.026Z" fill="#FCC675"/>
<path d="M379.761 234.702L362.421 233.811C359.044 233.637 356.447 230.759 356.621 227.381L358.568 189.514C358.742 186.136 361.619 183.539 364.997 183.713L382.337 184.604C385.714 184.778 388.311 187.656 388.137 191.034L386.19 228.902C386.023 232.28 383.139 234.876 379.761 234.702Z" fill="#1E3175"/>
<path d="M381.966 234.815L377.695 234.596C375.538 234.485 373.876 232.643 373.987 230.485L376.16 188.213C376.271 186.049 378.113 184.393 380.27 184.504L384.542 184.724C386.705 184.835 388.361 186.677 388.25 188.834L386.076 231.107C385.972 233.264 384.129 234.927 381.966 234.815Z" fill="#B5BFE7"/>
<path d="M430.831 93.8589C430.802 94.4208 430.187 94.8436 429.45 94.8057C428.718 94.7681 428.144 94.2842 428.172 93.7222C428.201 93.1603 428.817 92.7375 429.554 92.7754C430.285 92.813 430.86 93.303 430.831 93.8589Z" fill="#7C5101"/>
<path d="M403.067 91.626C403.044 92.0731 402.573 92.4063 402.011 92.3774C401.449 92.3485 401.014 91.9627 401.037 91.5216C401.06 91.0745 401.531 90.7413 402.093 90.7701C402.655 90.799 403.09 91.1788 403.067 91.626Z" fill="#7C5101"/>
<path d="M454.691 115.321C454.691 115.321 436.645 130.387 427.213 125.08L426.303 136.302C426.303 136.302 449.362 138.85 453.417 131.849C457.466 124.842 454.691 115.321 454.691 115.321Z" fill="#ADD0EE"/>
<path d="M420.988 43.5407L404.186 49.9832L401.926 49.0371L402.51 45.5714L408.751 40.8456L424.033 35.4578L432.284 34.8581L432.505 35.7479L431.317 37.7649L420.988 43.5407Z" fill="#3F1817"/>
<path d="M412.499 62.4725C412.16 62.231 408.345 51.1297 408.345 51.1297C408.345 51.1297 405.847 42.8164 407.803 41.5296C409.759 40.2428 414.482 35.6813 418.408 35.7983C422.334 35.9153 424.908 37.223 425.246 37.4646C425.585 37.7061 427.908 42.127 427.908 42.127C427.908 42.127 426.799 40.622 425.912 45.9563C425.033 51.2849 412.499 62.4725 412.499 62.4725Z" fill="#381A3F"/>
<path d="M422.42 62.4856C421.884 63.8515 421.573 73.7773 421.076 76.2539C420.587 78.7006 409.141 81.941 409.378 72.9625C409.616 63.9841 411.046 53.4857 411.046 53.4857L422.42 62.4856Z" fill="#FCC675"/>
<path d="M422.42 62.4857L418.648 59.4989L411.051 53.4861C411.051 53.4861 411.051 53.4922 411.051 53.4982C411.051 53.4982 411.05 53.5043 411.05 53.5103C411.05 53.5103 411.05 53.5103 411.05 53.5164C411.048 53.5526 411.038 53.6248 411.021 53.7209C410.98 54.0459 410.892 54.6957 410.785 55.5929L410.785 55.599C410.764 55.7796 410.742 55.9723 410.719 56.1711C410.719 56.1832 410.718 56.1953 410.717 56.2134C410.641 56.8638 410.555 57.6106 410.464 58.4299C410.461 58.4782 410.453 58.5202 410.451 58.5686C410.429 58.7613 410.406 58.9601 410.39 59.1652L410.389 59.1712C410.378 59.2737 410.367 59.3821 410.355 59.4906C410.354 59.5026 410.354 59.5147 410.353 59.5268C410.351 59.5691 410.343 59.6051 410.341 59.6474C410.34 59.6655 410.339 59.6776 410.338 59.6957C410.329 59.7679 410.325 59.8344 410.315 59.9066C411.531 64.7855 416.803 70.2909 421.562 71.1596C421.591 70.8279 421.626 70.4965 421.668 70.1594C421.883 66.7959 422.119 63.2639 422.42 62.4857Z" fill="#D4A052"/>
<path d="M411.031 45.258C409.403 48.7669 408.993 55.3253 412.17 60.4565C415.353 65.594 419.958 68.3935 423.489 66.0668C427.013 63.7398 428.792 48.0977 426.547 43.9352C424.296 39.7664 413.506 39.9024 411.031 45.258Z" fill="#FCC675"/>
<path d="M410.257 60.3154C410.257 60.3154 409.759 55.1462 407.854 53.7942C405.948 52.4421 405.099 51.6351 404.836 49.8041C404.573 47.973 400.407 44.039 401.636 41.1154C402.865 38.1918 405.732 39.4479 408.615 34.398C411.497 29.3481 414.466 26.629 420.466 28.8277C426.465 31.0263 427.119 34.792 427.119 34.792C427.119 34.792 429.832 34.4649 431.31 37.77C432.788 41.0751 431.516 42.8394 430.381 44.2956C430.381 44.2956 430.829 40.0596 429.352 40.2744C427.88 40.4957 429.108 45.2419 429.108 45.2419C429.108 45.2419 427.013 43.3409 424.824 40.4476C422.634 37.5602 423.041 40.8285 423.549 44.3745C424.058 47.9206 419.056 44.3435 416.885 41.6873C414.713 39.0311 411.304 41.2368 409.917 44.7702C408.535 48.3161 413.422 54.238 410.257 60.3154Z" fill="#111112"/>
<path d="M411.874 50.9415C411.874 50.9415 409.912 47.1571 408.712 48.7009C407.512 50.2386 408.185 55.0533 410.558 55.2238C412.93 55.3881 411.874 50.9415 411.874 50.9415Z" fill="#FCC675"/>
<path d="M410.645 51.1451C410.645 51.1451 410.833 49.0222 409.643 49.6698C408.452 50.3174 409.437 53.791 410.51 53.7795C411.577 53.7617 410.645 51.1451 410.645 51.1451Z" fill="#D4A052"/>
<path d="M422.882 50.7928C423.243 51.7867 423.468 52.8161 423.59 53.8644C423.819 56.136 423.407 57.0781 423.387 57.2225C423.13 57.1608 422.434 57.022 421.528 56.7331C422.121 56.7454 422.713 56.794 423.297 56.8543L423.09 56.9891C423.292 54.9517 422.998 52.8889 422.882 50.7928Z" fill="#172866"/>
<path d="M419.946 51.1872C420.04 51.8282 419.731 52.4121 419.255 52.4785C418.785 52.5512 418.324 52.0853 418.231 51.4383C418.136 50.7973 418.445 50.2134 418.921 50.147C419.397 50.0745 419.852 50.5402 419.946 51.1872Z" fill="#2C2C2C"/>
<path d="M426.435 50.5993C426.529 51.2402 426.22 51.8242 425.744 51.8906C425.274 51.9633 424.813 51.4974 424.719 50.8503C424.625 50.2033 424.934 49.6255 425.41 49.5591C425.88 49.4923 426.34 49.9583 426.435 50.5993Z" fill="#2C2C2C"/>
<path d="M416.369 49.3795C416.369 49.3795 417.449 47.6962 419.109 47.4484C420.776 47.2009 420.203 48.5588 419.819 48.6178C419.434 48.6768 416.325 49.0561 416.369 49.3795Z" fill="#172866"/>
<path d="M424.371 46.9129C424.371 46.9129 426.293 47.5933 426.616 48.5066C426.616 48.5066 424.558 48.2311 424.214 47.7288C423.87 47.2265 424.371 46.9129 424.371 46.9129Z" fill="#172866"/>
<path d="M417.237 59.2568C417.237 59.2568 422.179 61.4072 425.004 59.7288C425.004 59.7288 424.106 62.2272 423.388 62.6447C421.87 63.536 418.306 62.6197 417.237 59.2568Z" fill="white"/>
<path d="M408.094 27.9433C408.136 28.0666 411.785 38.8565 411.743 38.7392C416.101 37.3881 422.24 35.9346 426.691 35.0184C426.048 33.1557 425.058 30.2634 423.281 29.1179C420.906 27.5842 416.805 25.1196 413.415 25.5391C410.568 25.8895 409.345 27.1655 408.094 27.9433Z" fill="#F2B90C"/>
<path d="M408.549 27.579C408.592 27.6963 412.393 38.718 412.35 38.6068C416.941 37.2071 425.278 34.8367 429.962 33.8719C429.323 32.0457 428.269 30.2649 427.05 28.7724C425.523 26.8946 422.985 25.7039 420.699 25.0351C418.521 24.402 416.244 24.3759 414.051 24.972C412.282 25.4505 410.634 26.2745 409.077 27.2244C408.727 27.4306 408.549 27.579 408.549 27.579Z" fill="#F8E000"/>
<path d="M405.829 28.6449L410.416 39.2284C410.544 39.2048 416.277 37.2761 424.498 35.4995C423.897 32.712 423.038 29.6144 420.749 27.7156C418.558 25.9066 415.39 25.0713 412.615 25.6798C411.353 25.9542 410.161 26.5048 409.083 27.2188C407.932 27.5595 406.697 28.1382 405.829 28.6449Z" fill="#B65F2E"/>
<path d="M401.254 45.5065C403.23 40.2949 416.091 37.3453 421.843 36.1022C421.587 34.6168 421.11 30.8118 419.758 29.3065C414.738 23.7231 401.334 27.2142 399.862 36.9895C399.554 39.1002 400.59 43.2186 401.254 45.5065Z" fill="#F2BA0F"/>
<path d="M401.254 45.5181L401.249 45.5057C403.074 40.2924 415.113 37.6519 420.754 36.3365C423.847 35.5564 433.008 32.5862 433.571 35.19C433.787 36.1765 433.02 36.7187 431.319 37.7581C431.083 37.3825 433.342 35.2873 429.587 35.8576C422.749 36.8934 412.718 37.5773 403.564 45.8368C401.658 47.5563 403.005 49.1765 404.193 49.9767C401.447 49.8901 400.571 47.3732 401.254 45.5181Z" fill="#B96E16"/>
<path d="M401.01 45.4274C403.417 37.8449 430.091 31.3464 433.877 33.4676C435.478 34.3679 434.259 36.2923 431.317 37.7708C432.623 36.8807 433.054 36.406 433.222 35.9663C434.931 31.3469 410.317 38.7813 404.64 42.3365C403.338 43.148 402.14 44.183 401.512 45.5563C401.475 45.6876 401.045 46.5137 401.301 47.6658C401.447 48.364 401.775 49.0473 402.389 49.4847C400.081 48.6452 401.01 45.4274 401.01 45.4274Z" fill="#F8E000"/>
</g>
</g>
<path d="M160.646 263.497L162.223 260.201C164.946 254.611 169.532 250.311 175.122 247.875C178.705 246.442 182.574 245.725 186.301 245.868C186.444 245.868 186.587 245.868 186.731 245.868C187.161 245.868 187.734 245.725 188.164 245.582C188.594 245.438 188.88 245.152 189.167 245.009L174.692 211.041C171.825 204.449 164.229 201.296 157.493 204.162L133.702 214.194C130.119 215.628 126.392 216.631 122.523 216.774C114.497 217.348 107.331 211.041 107.187 203.015C107.187 202.729 107.187 202.442 107.187 202.155C107.474 195.849 104.178 189.973 98.4448 187.25L95.1484 185.387C86.6924 181.374 76.5166 185.674 73.5069 194.559L72.3603 198.286C70.3538 204.305 72.3603 210.755 77.0899 214.911C77.2332 215.054 77.5199 215.341 77.6632 215.484C83.396 221.217 82.9661 230.676 76.9466 236.123L75.9433 237.126C73.7935 239.132 71.357 240.709 68.6339 241.855L43.1228 252.891C36.6733 255.614 33.8069 263.067 36.53 269.373L85.5458 384.317C88.269 390.766 95.7217 393.633 102.028 390.91L128.829 379.444C131.552 378.297 134.275 377.581 137.285 377.437C145.311 376.864 152.477 383.027 152.477 391.053C152.477 391.34 152.477 391.626 152.477 391.913C152.19 398.219 155.487 404.095 161.219 406.818L164.659 408.538C173.115 412.551 183.291 408.251 186.301 399.366L187.447 395.639C189.454 389.62 187.447 383.17 182.718 379.014C182.574 378.871 182.288 378.584 182.144 378.441C176.412 372.708 176.842 363.249 182.861 357.802C185.011 355.796 187.447 354.219 190.17 353.073L216.541 341.894C223.134 339.027 226.287 331.431 223.421 324.695L208.945 290.585C208.516 290.585 208.229 290.728 207.799 290.871C207.369 291.015 206.796 291.445 206.509 291.875C206.366 292.018 206.366 292.018 206.222 292.161C203.786 295.028 200.633 297.321 197.193 298.897C191.46 301.334 185.154 301.62 179.135 299.614L175.695 298.467C168.816 296.174 163.083 291.015 160.216 284.279C157.35 277.686 157.493 270.09 160.646 263.497Z" fill="#00BFAA"/>
<g clip-path="url(#clip0_454_2)">
<mask id="mask6_454_2" style="mask-type:alpha" maskUnits="userSpaceOnUse" x="-27" y="108" width="266" height="304">
<path d="M149.386 215.105L151.598 210.687C155.42 203.195 161.857 197.433 169.702 194.167C174.731 192.246 180.162 191.286 185.392 191.478C185.594 191.478 185.795 191.478 185.996 191.478C186.599 191.478 187.404 191.286 188.007 191.094C188.611 190.902 189.013 190.518 189.415 190.326L169.099 144.801C165.076 135.965 154.414 131.739 144.96 135.581L111.568 149.027C106.539 150.948 101.309 152.292 95.8781 152.484C84.6134 153.253 74.5556 144.801 74.3545 134.044C74.3545 133.66 74.3545 133.276 74.3545 132.891C74.7568 124.44 70.1302 116.564 62.084 112.914L57.4574 110.417C45.5892 105.039 31.3072 110.801 27.0829 122.711L25.4737 127.705C22.6575 135.773 25.4737 144.417 32.1118 149.987C32.313 150.179 32.7153 150.564 32.9164 150.756C40.9627 158.439 40.3592 171.117 31.9106 178.416L30.5026 179.761C27.4852 182.45 24.0656 184.563 20.2436 186.1L-15.5621 200.89C-24.6141 204.54 -28.6372 214.529 -24.8153 222.98L43.98 377.034C47.8019 385.678 58.262 389.52 67.1129 385.87L104.729 370.504C108.551 368.967 112.373 368.006 116.597 367.814C127.862 367.046 137.92 375.306 137.92 386.063C137.92 386.447 137.92 386.831 137.92 387.215C137.517 395.667 142.144 403.543 150.19 407.192L155.018 409.497C166.886 414.876 181.168 409.113 185.392 397.204L187.002 392.209C189.818 384.142 187.002 375.498 180.364 369.927C180.162 369.735 179.76 369.351 179.559 369.159C171.513 361.475 172.116 348.798 180.565 341.498C183.582 338.809 187.002 336.696 190.824 335.159L227.836 320.177C237.089 316.335 241.515 306.154 237.492 297.126L217.175 251.409C216.572 251.409 216.169 251.601 215.566 251.794C214.962 251.986 214.158 252.562 213.755 253.138C213.554 253.33 213.554 253.33 213.353 253.522C209.933 257.364 205.508 260.437 200.68 262.55C192.634 265.816 183.783 266.2 175.335 263.511L170.507 261.974C160.851 258.901 152.805 251.986 148.782 242.958C144.759 234.122 144.96 223.941 149.386 215.105Z" fill="#00BFAA"/>
</mask>
<g mask="url(#mask6_454_2)">
<path d="M116.916 246.45C116.916 246.45 129.341 267.335 142.513 289.086C156.828 312.724 172.031 337.38 173.12 337.35C175.215 337.286 176.586 332.557 176.686 328.989C176.763 326.118 171.498 306.165 165.445 293.298C163.972 290.158 162.66 287.617 161.688 286.098C156.735 278.382 145.248 248.868 137.935 246.256C130.63 243.647 116.916 246.45 116.916 246.45Z" fill="#EF8F6A"/>
<path d="M176.017 324.944C176.017 324.944 176.45 328.97 179.205 332.03C181.951 335.088 182.64 336.001 180.835 338.988C179.03 341.975 177.321 345.861 175.078 345.754C172.834 345.647 167.795 328.779 167.795 328.779L176.017 324.944Z" fill="#EF8F6A"/>
<path d="M141.154 358.783C151.463 374.016 163.698 391.232 169.732 401.26C170.43 402.421 171.05 403.486 171.568 404.441C172.086 405.395 172.509 406.241 172.829 406.959C181.52 426.744 214.958 466.823 218.219 466.82C223.256 466.814 228.853 460.636 232.049 458.098C233.368 457.046 233.811 455.139 232.884 453.723C211.215 420.409 186.626 370.292 173.818 339.74C167.364 324.351 162.447 313.528 162.447 313.528C162.447 313.528 119.668 317.895 124.418 331.114C126.262 336.24 133.12 346.908 141.154 358.783Z" fill="#0B1A3B"/>
<path d="M141.155 358.783C151.464 374.016 163.699 391.232 169.733 401.26C170.431 402.421 175.644 412.557 176.16 413.506L153.586 333.557L144.283 338.108L141.155 358.783Z" fill="#06132B"/>
<path d="M105.315 228.759L106.026 230.665C106.026 230.665 108.804 236.42 101.815 240.068C94.8289 243.722 88.0703 242.632 86.5245 237.961C85.833 234.154 85.628 231.438 84.5623 228.474C84.1623 227.373 83.6494 226.243 82.9481 225.011L97.023 219.343L101.461 218.437L105.315 228.759Z" fill="#EF8F6A"/>
<path d="M101.463 218.442L105.322 228.762C104.082 230.036 102.545 231.111 100.641 231.834C94.1222 234.309 88.0876 231.122 84.5664 228.484C84.1663 227.383 83.6535 226.253 82.9521 225.021L97.027 219.353L101.463 218.442Z" fill="#E27452"/>
<path d="M146.863 327.753L187.601 476.335C187.601 476.335 178.708 483.482 168.578 484.421C168.578 484.421 133.49 408.054 126.711 388.701C119.936 369.345 102.926 339.064 106.996 333.466C111.066 327.869 146.863 327.753 146.863 327.753Z" fill="#0B1A3B"/>
<path d="M104.19 223.132C104.19 223.132 87.4174 233.708 80.9926 223.139C74.5645 212.578 68.0707 206.825 78.5075 199.632C88.9424 192.433 93.4959 195.188 96.4974 198.19C99.4989 201.193 108.386 220.106 104.19 223.132Z" fill="#EF8F6A"/>
<path d="M82.7885 225.347C82.7885 225.347 77.0153 229.169 72.0414 217.882C70.1283 213.537 63.1198 198.389 75.9649 194.117C88.8173 189.849 97.3878 195.065 99.032 195.927C111.368 202.405 87.6067 203.118 85.6692 206.45C83.737 209.779 87.8161 212.498 85.127 215.048C82.4359 217.592 79.9091 218.551 81.5567 221.283C83.2062 224.019 82.7885 225.347 82.7885 225.347Z" fill="#56130F"/>
<path d="M100.815 195.514C100.815 195.514 94.9402 200.442 92.6361 201.515C91.9497 201.835 81.7249 206.545 81.7249 206.545L67.4149 215.077C67.4149 215.077 60.0941 204.813 64.8746 194.797C64.9953 194.548 65.1212 194.296 65.2596 194.046C66.6198 191.527 68.7818 189.04 72.0558 186.754C88.6445 175.174 100.483 194.879 100.815 195.514Z" fill="#F3AD4C"/>
<path d="M92.7185 201.117L89.9676 202.605C86.5626 200.463 74.2261 193.242 64.8055 195.057C64.828 194.958 64.8544 194.87 64.8816 194.8C64.9637 194.559 65.0534 194.417 65.1677 194.056C65.2011 194.049 65.2312 194.05 65.2646 194.043C77.5928 192.462 89.7894 199.172 92.7185 201.117Z" fill="#EB9235"/>
<path d="M81.7251 206.545C81.7251 206.545 80.597 209.533 80.8999 211.875C81.2028 214.218 71.7316 219.289 70.6174 218.435C69.5084 217.579 67.4151 215.077 67.4151 215.077L81.7251 206.545Z" fill="#F3AD4C"/>
<path d="M81.7247 206.544C81.7247 206.544 100.2 199.919 106.907 192.313C107.418 191.736 106.952 190.822 106.18 190.917C104.802 191.087 102.528 191.561 98.9361 192.774C98.9414 192.772 94.4455 200.732 81.7247 206.544Z" fill="#EB9235"/>
<path d="M65.0901 279.83C65.0901 279.83 65.0541 258.69 68.9139 252.728C71.1391 249.288 76.7402 245.075 81.0743 242.129C82.4509 241.199 83.6944 240.391 84.6696 239.775C85.9348 238.977 86.7318 238.506 86.756 238.491C86.756 238.491 87.1308 238.942 87.7554 239.736C90.2695 241.581 96.3672 241.388 100.786 239.374C105.203 237.356 106.829 232.794 106.121 230.929L106.124 230.922C106.124 230.922 106.53 230.887 107.251 230.847C108.313 230.792 110.067 230.713 112.224 230.704C118.665 230.674 124.567 229.776 130.528 234.346C139.358 241.112 145.986 251.759 145.986 251.759C145.986 251.759 142.633 258.044 138.043 262.178C137.83 262.373 137.527 262.428 137.261 262.529C155.954 310.707 160.977 317.317 159.934 317.689C159.934 317.689 156.55 326.293 141.288 331.89C135.34 334.071 130.013 335.584 125.393 336.595C112.515 339.41 108.108 338.206 107.673 336.92C107.28 335.757 96.2971 304.955 95.823 303.265C93.6214 295.433 93.2641 293.782 88.2974 282.498C75.8726 284.015 65.0901 279.83 65.0901 279.83Z" fill="#F7DBBD"/>
<path d="M162.444 313.535L135.827 257.415C134.295 254.184 130.482 252.748 127.205 254.16L96.074 267.401C93.5086 268.495 92.1965 271.361 93.0491 274.016C95.5484 281.765 99.7016 297.087 95.8402 303.264L108.888 346.254L156.371 364.869C156.371 364.869 151.471 339.874 154.514 331.256C156.209 326.435 162.444 313.535 162.444 313.535Z" fill="#0B1A3B"/>
<path d="M81.0787 242.127L96.2892 269.687L100.04 267.615L84.674 239.773C83.6988 240.389 82.4553 241.196 81.0787 242.127Z" fill="#06132B"/>
<path d="M107.259 230.838L122.899 255.573L124.078 257.434L124.484 257.178L127.697 255.142L112.232 230.694C110.07 230.706 108.321 230.783 107.259 230.838Z" fill="#06132B"/>
<path d="M76.2631 316.116C76.2631 316.116 102.09 320.181 120.02 316.455C120.02 316.455 121.72 310.81 119.971 309.31C118.665 308.188 88.9269 301.861 88.6203 301.432C87.8556 300.379 89.1451 291.605 88.3127 282.492C80.8149 283.349 69.9074 281.484 66.4453 280.311C67.411 291.777 69.3388 309.34 76.2631 316.116Z" fill="#EF8F6A"/>
<path d="M120.132 306.282C120.132 306.282 121.934 303.367 123.781 302.336C125.629 301.305 128.446 298.809 128.352 300.17C128.258 301.53 125.348 304.727 125.348 304.727L120.132 306.282Z" fill="#EF8F6A"/>
<path d="M129.901 317.301L140.302 314.743C141.452 314.462 142.229 313.388 142.146 312.208L140.372 287.04C140.267 285.533 138.825 284.48 137.36 284.845L126.959 287.403C125.808 287.684 125.031 288.758 125.114 289.938L126.888 315.106C126.994 316.613 128.433 317.661 129.901 317.301Z" fill="#EB9235"/>
<path d="M133.584 316.394L143.985 313.836C145.136 313.555 145.913 312.48 145.83 311.301L144.055 286.133C143.95 284.626 142.509 283.573 141.043 283.937L130.642 286.496C129.492 286.777 128.715 287.851 128.797 289.031L130.572 314.199C130.677 315.705 132.117 316.753 133.584 316.394Z" fill="#F3AD4C"/>
<path d="M131.967 290.962C132.269 290.89 132.505 290.566 132.492 290.247L131.628 267.904C131.615 267.586 131.358 267.383 131.054 267.463C130.752 267.536 130.516 267.859 130.524 268.18L131.387 290.523C131.406 290.84 131.665 291.035 131.967 290.962Z" fill="#192E4F"/>
<path d="M115.002 307.78C115.002 307.78 117.186 308.204 118.322 307.395C119.259 306.727 120.132 306.282 121.024 305.008C121.962 303.663 125.2 303.74 126.235 303.976C129.14 304.642 136.942 301.608 137.531 303.159C138.12 304.709 136.365 310.351 132.732 313.205C129.099 316.059 120.015 316.457 120.015 316.457L115.002 307.78Z" fill="#EF8F6A"/>
</g>
</g>
<defs>
<clipPath id="clip0_454_2">
<rect width="117.942" height="321.041" fill="white" transform="translate(0 130.864) rotate(-20.7908)"/>
</clipPath>
</defs>
</svg>
