<svg xmlns="http://www.w3.org/2000/svg" xmlns:xlink="http://www.w3.org/1999/xlink" width="250" height="70" viewBox="0 0 250 70">
  <defs>
    <clipPath id="clip-logo">
      <rect width="250" height="70"/>
    </clipPath>
  </defs>
  <g id="logo" clip-path="url(#clip-logo)">
    <g id="Group_59" data-name="Group 59" transform="translate(3558.893 2639.365)">
      <path id="Path_1" data-name="Path 1" d="M430.28,71.15V95.207c0,8.77-7.45,13.73-14.893,13.73-.105,0-.221,0-.336,0s-.228,0-.333,0c-7.443,0-14.893-4.96-14.893-13.73V76.463H407.9V94.057c0,5.133,2.826,7.9,7.1,7.9h.112c4.271,0,7.1-2.768,7.1-7.9V71.15Z" transform="translate(-3783.935 -2699.452)" fill="#2e4765"/>
      <path id="Path_2" data-name="Path 2" d="M482.738,80.449a12.811,12.811,0,0,0-10.6,5.153V80.785h-8.105v47.541h8.105V108.468a13.089,13.089,0,0,0,10.6,5.1c8.22,0,14.646-6.66,14.646-16.675S490.959,80.449,482.738,80.449ZM480.6,106.443c-4.343,0-8.454-3.359-8.454-9.438s4.111-9.435,8.454-9.435c4.4,0,8.509,3.24,8.509,9.32S484.994,106.443,480.6,106.443Z" transform="translate(-3814.179 -2703.832)" fill="#2e4765"/>
      <path id="Path_3" data-name="Path 3" d="M98.355,113.546c-8.047,0-13.663-4.69-14.01-10.652h8.163c.289,2.431,2.547,4.284,5.789,4.284,3.184,0,4.921-1.447,4.921-3.3,0-5.731-18.12-2.084-18.12-13.836,0-5.326,4.747-9.61,12.678-9.61,7.757,0,12.447,4.226,12.91,10.594h-7.757c-.232-2.489-2.2-4.168-5.384-4.168-3.011,0-4.574,1.216-4.574,3.068,0,5.847,17.773,2.2,18,13.952C110.975,109.377,106.17,113.546,98.355,113.546Z" transform="translate(-3635.348 -2703.826)" fill="#2e4765"/>
      <path id="Path_4" data-name="Path 4" d="M163.669,81.083h8.626l-19.857,47.24h-8.626l6.947-15.978L137.907,81.083H147l8.278,22.4Z" transform="translate(-3660.576 -2704.13)" fill="#2e4765"/>
      <path id="Path_5" data-name="Path 5" d="M232.91,95.38c0-5.153-2.837-7.932-7.121-7.932-4.4,0-7.236,2.779-7.236,7.932v17.715h-8.1V80.834h8.105v4.183a11.98,11.98,0,0,1,9.668-4.457c7.468,0,12.794,4.863,12.794,13.721v18.814H232.91Z" transform="translate(-3694.742 -2703.881)" fill="#2e4765"/>
      <path id="Path_6" data-name="Path 6" d="M275.768,61.141h8.1V85.513l10.768-13.6h10.536L291.051,88l14.241,15.978H294.757L283.873,90.318v13.662h-8.1Z" transform="translate(-3725.506 -2694.738)" fill="#2e4765"/>
      <path id="Path_7" data-name="Path 7" d="M343.74,71.272a13.161,13.161,0,0,1,10.478,4.978V61.025h8.22v42.84h-8.22V99.118c-1.91,2.952-5.5,5.268-10.536,5.268-8.163,0-14.646-6.657-14.646-16.672S335.519,71.272,343.74,71.272Zm2.026,7.121c-4.342,0-8.452,3.242-8.452,9.321s4.11,9.552,8.452,9.552c4.458,0,8.51-3.358,8.51-9.436s-4.053-9.437-8.51-9.437Z" transform="translate(-3750.594 -2694.683)" fill="#2e4765"/>
      <path id="Path_8" data-name="Path 8" d="M443.02,69.942h-7.644l3.822-4.461,3.822-4.461,3.822,4.461,3.822,4.461Z" transform="translate(-3800.679 -2694.678)" fill="#2e4765"/>
      <rect id="Rectangle_2" data-name="Rectangle 2" width="234.188" height="98.114" transform="translate(-3550.972 -2653.422)" fill="none"/>
    </g>
  </g>
</svg>
